<svg width="77" height="77" viewBox="0 0 77 77" fill="none" xmlns="http://www.w3.org/2000/svg">
<g clip-path="url(#clip0)">
<path d="M15.3 61.7H10.9V58.2C10.9 57.3 11.7 57.3 12.6 57.3H14.4V52.9H10.9C7.99997 52.9 5.59998 55.3 5.59998 58.2V61.7H2.09998V66.1H5.59998V75.8H10.9V66.1H13.6L15.3 61.7Z" stroke="#2C2C2C" stroke-width="1.5" stroke-miterlimit="10" stroke-linecap="round"/>
<path d="M26.7999 3.80005C26.5999 2.70005 25.7 1.80005 24.5 1.40005C22.4 0.800049 14.1 0.800049 14.1 0.800049C14.1 0.800049 5.79995 0.800049 3.59995 1.30005C2.49995 1.70005 1.59995 2.60005 1.29995 3.70005C0.699951 5.70005 0.699951 10.1 0.699951 10.1C0.699951 10.1 0.699951 14.5 1.29995 16.5C1.49995 17.7 2.39995 18.5 3.59995 18.9C5.69995 19.5 14.1 19.5 14.1 19.5C14.1 19.5 22.4 19.5 24.5 19C25.6 18.6 26.4999 17.7 26.7999 16.6C27.3999 14.6 27.4 10.2 27.4 10.2C27.4 10.2 27.4999 5.80005 26.7999 3.80005Z" stroke="#2C2C2C" stroke-width="1.5" stroke-miterlimit="10" stroke-linecap="round"/>
<path d="M11.5 14.3L18.4 10.2L11.5 6.19995V14.3Z" stroke="#2C2C2C" stroke-width="1.5" stroke-miterlimit="10" stroke-linecap="round"/>
<path d="M64.1999 58C60.8999 58 58.2 60.6 58.2 64C58.2 67.3 60.8999 69.9 64.1999 69.9C67.4999 69.9 70.1999 67.2 70.1999 64C70.2999 60.7 67.5999 58 64.1999 58Z" stroke="#2C2C2C" stroke-width="1.5" stroke-miterlimit="10" stroke-linecap="round"/>
<path d="M71.3 55.6C70.5 55.6 69.9 56.2 69.9 57C69.9 57.8 70.5 58.4 71.3 58.4C72.1 58.4 72.7 57.8 72.7 57C72.6 56.2 72 55.6 71.3 55.6Z" stroke="#2C2C2C" stroke-width="1.5" stroke-miterlimit="10" stroke-linecap="round"/>
<path d="M64.2 52.3C59.4 52.3 54.9 51.9 53.1 56.3C52.3 58.2 52.5 60.6 52.5 64C52.5 67 52.4 69.7999 53.1 71.6999C54.9 76.0999 59.4 75.6999 64.2 75.6999C68.9 75.6999 73.5 76.1999 75.3 71.6999C76.1 69.7999 75.9 67.4 75.9 64C75.9 59.3 76.1 56.4 73.9 54.3C71.8 52 68.8 52.3 64.2 52.3Z" stroke="#2C2C2C" stroke-width="1.5" stroke-miterlimit="10" stroke-linecap="round"/>
<path d="M52.8 4.90005V21.8H58.6V25H61.7001L64.9001 21.8H69.5L75.9001 15.5V0.800049H54.3L52.8 4.90005Z" stroke="#2C2C2C" stroke-width="1.5" stroke-miterlimit="10" stroke-linecap="round"/>
<path d="M38.5 64.9C35.9 64.9 33.3 64.5 30.8 63.7999C30.4 63.7 30.2 63.3 30.3 62.9C30.4 62.5 30.8001 62.3 31.2001 62.4C35.9001 63.8 40.9001 63.8 45.7001 62.4C46.1001 62.3 46.5 62.5 46.6 62.9C46.7 63.3 46.5 63.7 46.1 63.7999C43.6 64.5 41 64.9 38.5 64.9ZM63.3 46.5C63.2001 46.5 63.2 46.5 63.1 46.5C62.7 46.4 62.5 46 62.6 45.5999C63.3 43.2999 63.6 40.7999 63.6 38.2999C63.6 35.7999 63.3 33.4 62.6 31C62.5 30.6 62.7 30.2 63.1 30.1C63.5 30 63.9001 30.2 64 30.6C64.7001 33.1 65.1 35.6999 65.1 38.2999C65.1 40.9 64.7001 43.5 64 46C63.9001 46.2999 63.6 46.5 63.3 46.5ZM13.6 46.5C13.3 46.5 13 46.2999 12.9 46C12.2 43.5 11.8 40.9 11.8 38.2999C11.8 35.6999 12.2 33.1 12.9 30.6C13 30.2 13.4 30 13.8 30.1C14.2 30.2 14.4 30.6 14.3 31C13.6 33.2999 13.3 35.7999 13.3 38.2999C13.3 40.7999 13.6 43.1999 14.3 45.5999C14.4 46 14.2 46.4 13.8 46.5C13.8 46.5 13.7 46.5 13.6 46.5ZM31 14.2C30.7001 14.2 30.4 14 30.3 13.7C30.2 13.3 30.4 12.9 30.8 12.8C33.2 12 35.8 11.7 38.5 11.7C41.2001 11.7 43.8 12.1 46.2001 12.8C46.6001 12.9 46.8 13.3 46.7001 13.7C46.6001 14.1 46.2001 14.3 45.8 14.2C43.5 13.5 41.1 13.1 38.6 13.1C36.1 13.1 33.6 13.5 31.3 14.2C31.1 14.2 31.1 14.2 31 14.2Z" fill="#B378B2"/>
<path d="M63.2 7.09998V13.4" stroke="#2C2C2C" stroke-width="1.5" stroke-miterlimit="10" stroke-linecap="round"/>
<path d="M69.1 7.09998V13.4" stroke="#2C2C2C" stroke-width="1.5" stroke-miterlimit="10" stroke-linecap="round"/>
<path d="M34.8 29.6L47.8 38.3L34.8 46.9V29.6Z" stroke="#2C2C2C" stroke-width="1.5" stroke-miterlimit="10" stroke-linecap="round"/>
</g>
<defs>
<clipPath id="clip0">
<rect width="76.7" height="76.5" fill="white"/>
</clipPath>
</defs>
</svg>
