<svg width="77" height="58" viewBox="0 0 77 58" fill="none" xmlns="http://www.w3.org/2000/svg">
<g clip-path="url(#clip0)">
<path d="M75.7 46.3V48.1C75.7 52.7 72 56.3 67.5 56.3H9.00005C4.50005 56.3 0.800049 52.6 0.800049 48.1V46.3H75.7Z" stroke="#2C2C2C" stroke-width="1.5" stroke-miterlimit="10" stroke-linecap="round"/>
<path d="M7.30005 46.3V5.10005C7.30005 2.70005 9.30005 0.800049 11.6 0.800049H64.9001C67.3001 0.800049 69.2 2.80005 69.2 5.10005V46.3" stroke="#2C2C2C" stroke-width="1.5" stroke-miterlimit="10" stroke-linecap="round"/>
<path d="M34.9 51.3H41.6" stroke="#2C2C2C" stroke-width="1.5" stroke-miterlimit="10" stroke-linecap="round"/>
<path d="M38.3 16.5C41.3 16.5 43.7 14.1 43.7 11.1C43.7 8.09995 41.3 5.69995 38.3 5.69995C35.3 5.69995 32.9 8.09995 32.9 11.1C32.9 14.1 35.3 16.5 38.3 16.5Z" stroke="#2C2C2C" stroke-width="1.5" stroke-miterlimit="10" stroke-linecap="round"/>
<path d="M29.4 26.2C29.4 20.9 33.3 16.5 38.2 16.5C43.1 16.5 47 20.8 47 26.2" stroke="#2C2C2C" stroke-width="1.5" stroke-miterlimit="10" stroke-linecap="round"/>
<path d="M12 30.6H26.6C27.2 30.6 27.6 31.1 27.6 31.6V42.1C27.6 42.7 27.1 43.1 26.6 43.1H12C11.5 43.1 11 42.6 11 42.1V31.6C11 31 11.4 30.6 12 30.6Z" stroke="#B378B2" stroke-width="1.5" stroke-miterlimit="10" stroke-linecap="round"/>
<path d="M19.3 37.1C20.3 37.1 21.2 36.2001 21.2 35.2001C21.2 34.2001 20.3 33.3 19.3 33.3C18.3 33.3 17.4 34.2001 17.4 35.2001C17.4 36.2001 18.3 37.1 19.3 37.1Z" stroke="#B378B2" stroke-width="1.5" stroke-miterlimit="10" stroke-linecap="round"/>
<path d="M16.2 40.5C16.2 38.6 17.5999 37.1 19.2999 37.1C20.9999 37.1 22.4 38.6 22.4 40.5" stroke="#B378B2" stroke-width="1.5" stroke-miterlimit="10" stroke-linecap="round"/>
<path d="M31 30.6H45.6C46.2 30.6 46.6 31.1 46.6 31.6V42.1C46.6 42.7 46.1 43.1 45.6 43.1H31C30.4 43.1 30 42.6 30 42.1V31.6C30 31 30.5 30.6 31 30.6Z" stroke="#B378B2" stroke-width="1.5" stroke-miterlimit="10" stroke-linecap="round"/>
<path d="M38.4 37.1C39.4 37.1 40.3 36.2001 40.3 35.2001C40.3 34.2001 39.4 33.3 38.4 33.3C37.3 33.3 36.5 34.2001 36.5 35.2001C36.5 36.2001 37.3 37.1 38.4 37.1Z" stroke="#B378B2" stroke-width="1.5" stroke-miterlimit="10" stroke-linecap="round"/>
<path d="M35.3 40.5C35.3 38.6 36.7001 37.1 38.4001 37.1C40.1001 37.1 41.5 38.6 41.5 40.5" stroke="#B378B2" stroke-width="1.5" stroke-miterlimit="10" stroke-linecap="round"/>
<path d="M50.1 30.6H64.7C65.2 30.6 65.7 31.1 65.7 31.6V42.1C65.7 42.7 65.2 43.1 64.7 43.1H50.1C49.5 43.1 49.1 42.6 49.1 42.1V31.6C49.1 31 49.6 30.6 50.1 30.6Z" stroke="#B378B2" stroke-width="1.5" stroke-miterlimit="10" stroke-linecap="round"/>
<path d="M57.4 37.1C58.5 37.1 59.3 36.2001 59.3 35.2001C59.3 34.2001 58.4 33.3 57.4 33.3C56.4 33.3 55.5 34.2001 55.5 35.2001C55.5 36.2001 56.4 37.1 57.4 37.1Z" stroke="#B378B2" stroke-width="1.5" stroke-miterlimit="10" stroke-linecap="round"/>
<path d="M54.4 40.5C54.4 38.6 55.8 37.1 57.5 37.1C59.2 37.1 60.6 38.6 60.6 40.5" stroke="#B378B2" stroke-width="1.5" stroke-miterlimit="10" stroke-linecap="round"/>
</g>
<defs>
<clipPath id="clip0">
<rect width="76.5" height="57.1" fill="white"/>
</clipPath>
</defs>
</svg>
