<svg width="78" height="77" viewBox="0 0 78 77" fill="none" xmlns="http://www.w3.org/2000/svg">
<g clip-path="url(#clip0)">
<path d="M60.8 24.3L53.4 28.3V24.3V20.8V4.40005C53.4 2.40005 55 0.800049 57 0.800049H73.1C75.1 0.800049 76.7 2.40005 76.7 4.40005V20.8C76.7 22.8 75.1 24.4 73.1 24.4H60.8V24.3Z" stroke="#B378B2" stroke-width="1.5" stroke-miterlimit="10" stroke-linecap="round"/>
<path d="M65.1 12.5C67.5 12.5 69.4 10.6 69.4 8.3C69.4 5.9 67.5 4 65.1 4C62.8 4 60.9 5.9 60.9 8.3C60.8 10.6 62.8 12.5 65.1 12.5Z" stroke="#2C2C2C" stroke-width="1.5" stroke-miterlimit="10" stroke-linecap="round"/>
<path d="M58.2 20.1C58.2 15.9 61.2999 12.6 65.0999 12.6C68.8999 12.6 72 16 72 20.1" stroke="#2C2C2C" stroke-width="1.5" stroke-miterlimit="10" stroke-linecap="round"/>
<path d="M29.7 71.3L21.5 75.7V71.3V67.5V49.1C21.5 46.9 23.3 45.1 25.5 45.1H43.4C45.6 45.1 47.4 46.9 47.4 49.1V67.3C47.4 69.5 45.6 71.3 43.4 71.3H29.7Z" stroke="#B378B2" stroke-width="1.5" stroke-miterlimit="10" stroke-linecap="round"/>
<path d="M34.5001 58.2001C37.1001 58.2001 39.2001 56.1 39.2001 53.5C39.2001 50.9 37.1001 48.8 34.5001 48.8C31.9001 48.8 29.8001 50.9 29.8001 53.5C29.7001 56 31.8001 58.2001 34.5001 58.2001Z" stroke="#2C2C2C" stroke-width="1.5" stroke-miterlimit="10" stroke-linecap="round"/>
<path d="M26.8 66.5999C26.8 61.9999 30.3 58.2 34.5 58.2C38.7 58.2 42.2001 61.9999 42.2001 66.5999" stroke="#2C2C2C" stroke-width="1.5" stroke-miterlimit="10" stroke-linecap="round"/>
<path d="M6.19995 25.4L0.699951 28.4V25.4V22.8V10.6C0.699951 9.10002 1.89995 7.90002 3.39995 7.90002H15.3C16.8 7.90002 18 9.10002 18 10.6V22.7C18 24.2 16.8 25.4 15.3 25.4H6.19995Z" stroke="#B378B2" stroke-width="1.5" stroke-miterlimit="10" stroke-linecap="round"/>
<path d="M9.40002 16.6C10.8 16.6 11.9 15.5 11.9 14.1C11.9 12.7 10.8 11.6 9.40002 11.6C8.00002 11.6 6.90002 12.7 6.90002 14.1C6.90002 15.5 8.00002 16.6 9.40002 16.6Z" stroke="#2C2C2C" stroke-width="1.5" stroke-miterlimit="10" stroke-linecap="round"/>
<path d="M5.40002 21C5.40002 18.6 7.20002 16.6 9.40002 16.6C11.6 16.6 13.4 18.6 13.4 21" stroke="#2C2C2C" stroke-width="1.5" stroke-miterlimit="10" stroke-linecap="round"/>
<path d="M29.4 20.2L42.5 28.9L29.4 37.5999V20.2Z" stroke="#2C2C2C" stroke-width="1.5" stroke-miterlimit="10" stroke-linecap="round"/>
<path d="M12.4 31.7L17.3 40.2" stroke="#2C2C2C" stroke-width="1.5" stroke-miterlimit="10" stroke-linecap="round"/>
<path d="M30.9 13.5H40.6" stroke="#2C2C2C" stroke-width="1.5" stroke-miterlimit="10" stroke-linecap="round"/>
<path d="M58.8 31.7L53.8 40.2" stroke="#2C2C2C" stroke-width="1.5" stroke-miterlimit="10" stroke-linecap="round"/>
</g>
<defs>
<clipPath id="clip0">
<rect width="77.5" height="77" fill="white"/>
</clipPath>
</defs>
</svg>
