<svg width="61" height="61" viewBox="0 0 61 61" fill="none" xmlns="http://www.w3.org/2000/svg">
<g clip-path="url(#clip0)">
<path d="M41.4 18.8C40.5 17.8 38.9 17.8 37.9 18.8L29.7 27C28.8 28 28.8 29.6 29.7 30.5C30.7 31.5 32.2 31.5 33.2 30.5L41.4 22.3C42.4 21.3 42.4 19.8 41.4 18.8Z" stroke="#B378B2" stroke-width="1.5" stroke-miterlimit="10" stroke-linecap="round"/>
<path d="M50.7 9.49998C55 13.8 57.1 17.7 57.7 21.5C58.9 29.7 53.4 34.1 47.2 38.1C43 40.9 40.1 43.8 38.2 46.8C35.7 50.7 35.6 53.5 31.4 56.8C23.8 62.7 14.5 57.7 8.6 51.7C2.6 45.8 -2.3 36.6 3.5 28.9C6.7 24.7 9.6 24.6 13.5 22.1C16.5 20.2 19.4 17.3 22.2 13.1C26.3 6.89998 30.7 1.29998 38.8 2.59998C42.4 3.09998 46.3 5.19998 50.7 9.49998Z" stroke="#2C2C2C" stroke-width="1.5" stroke-miterlimit="10" stroke-linecap="round"/>
<path d="M29.9 26.8C24.6 20.8 25.5 15 29.8 10.5C32.2 7.99999 34.6 5.79999 38.1 6.29999C41.9 6.89999 45.3 9.59999 47.9 12.2C50.5 14.8 53.2 18.2 53.8 22C54.3 25.5 52.2 28 49.6 30.3C45 34.6 39.3 35.6 33.3 30.2" stroke="#B378B2" stroke-width="1.5" stroke-miterlimit="10" stroke-linecap="round"/>
<path d="M52.3 34.3C49.3 43.3 43.7 50.8001 32.8 55.4001" stroke="#2C2C2C" stroke-width="1.5" stroke-miterlimit="10" stroke-linecap="round"/>
<path d="M25.9 7.90002C16.9 10.9 9.40005 16.5 4.80005 27.4" stroke="#2C2C2C" stroke-width="1.5" stroke-miterlimit="10" stroke-linecap="round"/>
<path d="M13 47.2C15.1 49.2 18.4 49.2 20.5 47.2C22.5 45.1 22.5 41.8 20.5 39.7C18.4 37.7 15.1 37.7 13 39.7C11 41.7 11 45.1 13 47.2Z" stroke="#2C2C2C" stroke-width="1.5" stroke-miterlimit="10" stroke-linecap="round"/>
<path d="M48 12.3L41.6 18.6" stroke="#B378B2" stroke-width="1.5" stroke-miterlimit="10" stroke-linecap="round"/>
<path d="M47.8 7.00002L50.4001 4.40002L55.8 9.80002L53.2001 12.4" stroke="#2C2C2C" stroke-width="1.5" stroke-miterlimit="10" stroke-linecap="round"/>
<path d="M59.5 0.800049L53.1 7.10005" stroke="#2C2C2C" stroke-width="1.5" stroke-miterlimit="10" stroke-linecap="round"/>
</g>
<defs>
<clipPath id="clip0">
<rect width="60.2" height="60.2" fill="white"/>
</clipPath>
</defs>
</svg>
