<svg width="67" height="77" viewBox="0 0 67 77" fill="none" xmlns="http://www.w3.org/2000/svg">
<g clip-path="url(#clip0)">
<path d="M33.2 8.20005C35.2 8.20005 36.9 6.50005 36.9 4.50005C36.9 2.50005 35.2 0.800049 33.2 0.800049C31.1 0.800049 29.5 2.50005 29.5 4.50005C29.5 6.50005 31.1 8.20005 33.2 8.20005Z" stroke="#2C2C2C" stroke-width="1.5" stroke-miterlimit="10" stroke-linecap="round"/>
<path d="M27.1001 14.8C27.1001 11.1 29.8001 8.19995 33.1001 8.19995C36.4001 8.19995 39.1001 11.2 39.1001 14.8" stroke="#2C2C2C" stroke-width="1.5" stroke-miterlimit="10" stroke-linecap="round"/>
<path d="M59.5 23.4C61.6 23.4 63.2001 21.7 63.2001 19.7C63.2001 17.7 61.6 16 59.5 16C57.5 16 55.8 17.7 55.8 19.7C55.8 21.7 57.5 23.4 59.5 23.4Z" stroke="#2C2C2C" stroke-width="1.5" stroke-miterlimit="10" stroke-linecap="round"/>
<path d="M53.5 30.1C53.5 26.4 56.2 23.5 59.5 23.5C62.9 23.5 65.5 26.5 65.5 30.1" stroke="#2C2C2C" stroke-width="1.5" stroke-miterlimit="10" stroke-linecap="round"/>
<path d="M59.5 53.9C61.6 53.9 63.2001 52.2 63.2001 50.2C63.2001 48.2 61.6 46.5 59.5 46.5C57.5 46.5 55.8 48.2 55.8 50.2C55.8 52.2 57.5 53.9 59.5 53.9Z" stroke="#2C2C2C" stroke-width="1.5" stroke-miterlimit="10" stroke-linecap="round"/>
<path d="M53.5 60.5C53.5 56.8 56.2 53.9 59.5 53.9C62.9 53.9 65.5 56.9 65.5 60.5" stroke="#2C2C2C" stroke-width="1.5" stroke-miterlimit="10" stroke-linecap="round"/>
<path d="M6.8001 23.4C8.8001 23.4 10.5001 21.7 10.5001 19.7C10.5001 17.7 8.8001 16 6.8001 16C4.8001 16 3.1001 17.7 3.1001 19.7C3.1001 21.7 4.8001 23.4 6.8001 23.4Z" stroke="#2C2C2C" stroke-width="1.5" stroke-miterlimit="10" stroke-linecap="round"/>
<path d="M0.800049 30.1C0.800049 26.4 3.50005 23.5 6.80005 23.5C10.1 23.5 12.8 26.5 12.8 30.1" stroke="#2C2C2C" stroke-width="1.5" stroke-miterlimit="10" stroke-linecap="round"/>
<path d="M6.8001 53.9C8.8001 53.9 10.5001 52.2 10.5001 50.2C10.5001 48.2 8.8001 46.5 6.8001 46.5C4.8001 46.5 3.1001 48.2 3.1001 50.2C3.1001 52.2 4.8001 53.9 6.8001 53.9Z" stroke="#2C2C2C" stroke-width="1.5" stroke-miterlimit="10" stroke-linecap="round"/>
<path d="M0.800049 60.5C0.800049 56.8 3.50005 53.9 6.80005 53.9C10.1 53.9 12.8 56.9 12.8 60.5" stroke="#2C2C2C" stroke-width="1.5" stroke-miterlimit="10" stroke-linecap="round"/>
<path d="M33.2 69.1C35.2 69.1 36.9 67.4 36.9 65.4C36.9 63.3 35.2 61.6 33.2 61.6C31.1 61.6 29.5 63.3 29.5 65.4C29.5 67.5 31.1 69.1 33.2 69.1Z" stroke="#2C2C2C" stroke-width="1.5" stroke-miterlimit="10" stroke-linecap="round"/>
<path d="M27.1001 75.7C27.1001 72.1 29.8001 69.1 33.1001 69.1C36.4001 69.1 39.1001 72.1 39.1001 75.7" stroke="#2C2C2C" stroke-width="1.5" stroke-miterlimit="10" stroke-linecap="round"/>
<path d="M28.1001 29.5L41.1001 38.1L28.1001 46.7V29.5Z" stroke="#B378B2" stroke-width="1.5" stroke-miterlimit="10" stroke-linecap="round"/>
<path d="M33.2001 59.2V52.2M21.4 31.9L15.3 28.4L21.4 31.9ZM21.4 45.5L15.3 49L21.4 45.5ZM44.9001 45.5L50.9001 49L44.9001 45.5ZM33.2001 18.1V25.1V18.1ZM44.9001 31.9L50.9001 28.4L44.9001 31.9Z" stroke="#2C2C2C" stroke-width="1.5" stroke-miterlimit="10" stroke-linecap="round"/>
</g>
<defs>
<clipPath id="clip0">
<rect width="66.3" height="76.5" fill="white"/>
</clipPath>
</defs>
</svg>
