<svg width="259" height="188" viewBox="0 0 259 188" fill="none" xmlns="http://www.w3.org/2000/svg">
<g opacity="0.3">
<rect width="2.84284" height="2.84284" rx="0.5" fill="#333333"/>
<rect x="14.231" width="2.84284" height="2.84284" rx="0.5" fill="#333333"/>
<rect x="28.4622" width="2.84284" height="2.84284" rx="0.5" fill="#333333"/>
<rect x="42.6936" width="2.84284" height="2.84284" rx="0.5" fill="#333333"/>
<rect x="56.9219" width="2.84284" height="2.84284" rx="0.5" fill="#333333"/>
<rect x="71.1533" width="2.84284" height="2.84284" rx="0.5" fill="#333333"/>
<rect x="85.3845" width="2.84284" height="2.84284" rx="0.5" fill="#333333"/>
<rect x="99.616" width="2.84284" height="2.84284" rx="0.5" fill="#333333"/>
<rect x="113.847" width="2.84284" height="2.84284" rx="0.5" fill="#333333"/>
<rect x="128.078" width="2.84284" height="2.84284" rx="0.5" fill="#333333"/>
<rect x="142.31" width="2.84284" height="2.84284" rx="0.5" fill="#333333"/>
<rect x="156.538" width="2.84284" height="2.84284" rx="0.5" fill="#333333"/>
<rect x="170.77" width="2.84284" height="2.84284" rx="0.5" fill="#333333"/>
<rect x="185.001" width="2.84284" height="2.84284" rx="0.5" fill="#333333"/>
<rect x="199.232" width="2.84284" height="2.84284" rx="0.5" fill="#333333"/>
<rect x="213.463" width="2.84284" height="2.84284" rx="0.5" fill="#333333"/>
<rect x="227.695" width="2.84284" height="2.84284" rx="0.5" fill="#333333"/>
<rect x="241.926" width="2.84284" height="2.84284" rx="0.5" fill="#333333"/>
<rect x="256.157" width="2.84284" height="2.84284" rx="0.5" fill="#333333"/>
<rect y="14.2315" width="2.84284" height="2.84284" rx="0.5" fill="#333333"/>
<rect x="14.231" y="14.2308" width="2.84284" height="2.84284" rx="0.5" fill="#333333"/>
<rect x="28.4622" y="14.2308" width="2.84284" height="2.84284" rx="0.5" fill="#333333"/>
<rect x="42.6936" y="14.2308" width="2.84284" height="2.84284" rx="0.5" fill="#333333"/>
<rect x="56.9219" y="14.2308" width="2.84284" height="2.84284" rx="0.5" fill="#333333"/>
<rect x="71.1533" y="14.2308" width="2.84284" height="2.84284" rx="0.5" fill="#333333"/>
<rect x="85.3845" y="14.2308" width="2.84284" height="2.84284" rx="0.5" fill="#333333"/>
<rect x="99.616" y="14.2308" width="2.84284" height="2.84284" rx="0.5" fill="#333333"/>
<rect x="113.847" y="14.2308" width="2.84284" height="2.84284" rx="0.5" fill="#333333"/>
<rect x="128.078" y="14.2308" width="2.84284" height="2.84284" rx="0.5" fill="#333333"/>
<rect x="142.31" y="14.2308" width="2.84284" height="2.84284" rx="0.5" fill="#333333"/>
<rect x="156.538" y="14.2308" width="2.84284" height="2.84284" rx="0.5" fill="#333333"/>
<rect x="170.77" y="14.2308" width="2.84284" height="2.84284" rx="0.5" fill="#333333"/>
<rect x="185.001" y="14.2308" width="2.84284" height="2.84284" rx="0.5" fill="#333333"/>
<rect x="199.232" y="14.2308" width="2.84284" height="2.84284" rx="0.5" fill="#333333"/>
<rect x="213.463" y="14.2308" width="2.84284" height="2.84284" rx="0.5" fill="#333333"/>
<rect x="227.695" y="14.2308" width="2.84284" height="2.84284" rx="0.5" fill="#333333"/>
<rect x="256.157" y="14.2308" width="2.84284" height="2.84284" rx="0.5" fill="#333333"/>
<rect y="28.4623" width="2.84284" height="2.84284" rx="0.5" fill="#333333"/>
<rect x="14.231" y="28.4615" width="2.84284" height="2.84284" rx="0.5" fill="#333333"/>
<rect x="28.4622" y="28.4615" width="2.84284" height="2.84284" rx="0.5" fill="#333333"/>
<rect x="42.6936" y="28.4615" width="2.84284" height="2.84284" rx="0.5" fill="#333333"/>
<rect x="71.1533" y="28.4615" width="2.84284" height="2.84284" rx="0.5" fill="#333333"/>
<rect x="85.3845" y="28.4615" width="2.84284" height="2.84284" rx="0.5" fill="#333333"/>
<rect x="99.616" y="28.4615" width="2.84284" height="2.84284" rx="0.5" fill="#333333"/>
<rect x="113.847" y="28.4615" width="2.84284" height="2.84284" rx="0.5" fill="#333333"/>
<rect x="128.078" y="28.4615" width="2.84284" height="2.84284" rx="0.5" fill="#333333"/>
<rect x="142.31" y="28.4615" width="2.84284" height="2.84284" rx="0.5" fill="#333333"/>
<rect x="156.538" y="28.4615" width="2.84284" height="2.84284" rx="0.5" fill="#333333"/>
<rect x="170.77" y="28.4615" width="2.84284" height="2.84284" rx="0.5" fill="#333333"/>
<rect x="185.001" y="28.4615" width="2.84284" height="2.84284" rx="0.5" fill="#333333"/>
<rect x="199.232" y="28.4615" width="2.84284" height="2.84284" rx="0.5" fill="#333333"/>
<rect x="213.463" y="28.4615" width="2.84284" height="2.84284" rx="0.5" fill="#333333"/>
<rect x="241.926" y="28.4615" width="2.84284" height="2.84284" rx="0.5" fill="#333333"/>
<rect x="256.157" y="28.4615" width="2.84284" height="2.84284" rx="0.5" fill="#333333"/>
<rect y="42.6931" width="2.84284" height="2.84284" rx="0.5" fill="#333333"/>
<rect x="14.231" y="42.6929" width="2.84284" height="2.84284" rx="0.5" fill="#333333"/>
<rect x="28.4622" y="42.6929" width="2.84284" height="2.84284" rx="0.5" fill="#333333"/>
<rect x="42.6936" y="42.6929" width="2.84284" height="2.84284" rx="0.5" fill="#333333"/>
<rect x="56.9219" y="42.6929" width="2.84284" height="2.84284" rx="0.5" fill="#333333"/>
<rect x="71.1533" y="42.6929" width="2.84284" height="2.84284" rx="0.5" fill="#333333"/>
<rect x="85.3845" y="42.6929" width="2.84284" height="2.84284" rx="0.5" fill="#333333"/>
<rect x="99.616" y="42.6929" width="2.84284" height="2.84284" rx="0.5" fill="#333333"/>
<rect x="113.847" y="42.6929" width="2.84284" height="2.84284" rx="0.5" fill="#333333"/>
<rect x="128.078" y="42.6929" width="2.84284" height="2.84284" rx="0.5" fill="#333333"/>
<rect x="142.31" y="42.6929" width="2.84284" height="2.84284" rx="0.5" fill="#333333"/>
<rect x="156.538" y="42.6929" width="2.84284" height="2.84284" rx="0.5" fill="#333333"/>
<rect x="170.77" y="42.6929" width="2.84284" height="2.84284" rx="0.5" fill="#333333"/>
<rect x="185.001" y="42.6929" width="2.84284" height="2.84284" rx="0.5" fill="#333333"/>
<rect x="199.232" y="42.6929" width="2.84284" height="2.84284" rx="0.5" fill="#333333"/>
<rect x="227.695" y="42.6929" width="2.84284" height="2.84284" rx="0.5" fill="#333333"/>
<rect x="241.926" y="42.6929" width="2.84284" height="2.84284" rx="0.5" fill="#333333"/>
<rect x="256.157" y="42.6929" width="2.84284" height="2.84284" rx="0.5" fill="#333333"/>
<rect y="56.9234" width="2.84284" height="2.84284" rx="0.5" fill="#333333"/>
<rect x="28.4622" y="56.9237" width="2.84284" height="2.84284" rx="0.5" fill="#333333"/>
<rect x="42.6936" y="56.9237" width="2.84284" height="2.84284" rx="0.5" fill="#333333"/>
<rect x="56.9219" y="56.9237" width="2.84284" height="2.84284" rx="0.5" fill="#333333"/>
<rect x="71.1533" y="56.9237" width="2.84284" height="2.84284" rx="0.5" fill="#333333"/>
<rect x="85.3845" y="56.9237" width="2.84284" height="2.84284" rx="0.5" fill="#333333"/>
<rect x="99.616" y="56.9237" width="2.84284" height="2.84284" rx="0.5" fill="#333333"/>
<rect x="113.847" y="56.9237" width="2.84284" height="2.84284" rx="0.5" fill="#333333"/>
<rect x="128.078" y="56.9237" width="2.84284" height="2.84284" rx="0.5" fill="#333333"/>
<rect x="142.31" y="56.9237" width="2.84284" height="2.84284" rx="0.5" fill="#333333"/>
<rect x="156.538" y="56.9237" width="2.84284" height="2.84284" rx="0.5" fill="#333333"/>
<rect x="170.77" y="56.9237" width="2.84284" height="2.84284" rx="0.5" fill="#333333"/>
<rect x="199.232" y="56.9237" width="2.84284" height="2.84284" rx="0.5" fill="#333333"/>
<rect x="213.463" y="56.9237" width="2.84284" height="2.84284" rx="0.5" fill="#333333"/>
<rect x="227.695" y="56.9237" width="2.84284" height="2.84284" rx="0.5" fill="#333333"/>
<rect x="241.926" y="56.9237" width="2.84284" height="2.84284" rx="0.5" fill="#333333"/>
<rect x="256.157" y="56.9237" width="2.84284" height="2.84284" rx="0.5" fill="#333333"/>
<rect y="71.1547" width="2.84284" height="2.84284" rx="0.5" fill="#333333"/>
<rect x="14.231" y="71.1551" width="2.84284" height="2.84284" rx="0.5" fill="#333333"/>
<rect x="28.4622" y="71.1551" width="2.84284" height="2.84284" rx="0.5" fill="#333333"/>
<rect x="42.6936" y="71.1551" width="2.84284" height="2.84284" rx="0.5" fill="#333333"/>
<rect x="56.9219" y="71.1551" width="2.84284" height="2.84284" rx="0.5" fill="#333333"/>
<rect x="85.3845" y="71.1551" width="2.84284" height="2.84284" rx="0.5" fill="#333333"/>
<rect x="99.616" y="71.1551" width="2.84284" height="2.84284" rx="0.5" fill="#333333"/>
<rect x="113.847" y="71.1551" width="2.84284" height="2.84284" rx="0.5" fill="#333333"/>
<rect x="128.078" y="71.1551" width="2.84284" height="2.84284" rx="0.5" fill="#333333"/>
<rect x="142.31" y="71.1551" width="2.84284" height="2.84284" rx="0.5" fill="#333333"/>
<rect x="156.538" y="71.1551" width="2.84284" height="2.84284" rx="0.5" fill="#333333"/>
<rect x="170.77" y="71.1551" width="2.84284" height="2.84284" rx="0.5" fill="#333333"/>
<rect x="185.001" y="71.1551" width="2.84284" height="2.84284" rx="0.5" fill="#333333"/>
<rect x="199.232" y="71.1551" width="2.84284" height="2.84284" rx="0.5" fill="#333333"/>
<rect x="213.463" y="71.1551" width="2.84284" height="2.84284" rx="0.5" fill="#333333"/>
<rect x="227.695" y="71.1551" width="2.84284" height="2.84284" rx="0.5" fill="#333333"/>
<rect x="241.926" y="71.1551" width="2.84284" height="2.84284" rx="0.5" fill="#333333"/>
<rect x="256.157" y="71.1551" width="2.84284" height="2.84284" rx="0.5" fill="#333333"/>
<rect y="85.3842" width="2.84284" height="2.84284" rx="0.5" fill="#333333"/>
<rect x="14.231" y="85.3836" width="2.84284" height="2.84284" rx="0.5" fill="#333333"/>
<rect x="28.4622" y="85.3836" width="2.84284" height="2.84284" rx="0.5" fill="#333333"/>
<rect x="42.6936" y="85.3836" width="2.84284" height="2.84284" rx="0.5" fill="#333333"/>
<rect x="56.9219" y="85.3836" width="2.84284" height="2.84284" rx="0.5" fill="#333333"/>
<rect x="71.1533" y="85.3836" width="2.84284" height="2.84284" rx="0.5" fill="#333333"/>
<rect x="85.3845" y="85.3836" width="2.84284" height="2.84284" rx="0.5" fill="#333333"/>
<rect x="99.616" y="85.3836" width="2.84284" height="2.84284" rx="0.5" fill="#333333"/>
<rect x="113.847" y="85.3836" width="2.84284" height="2.84284" rx="0.5" fill="#333333"/>
<rect x="142.31" y="85.3836" width="2.84284" height="2.84284" rx="0.5" fill="#333333"/>
<rect x="156.538" y="85.3836" width="2.84284" height="2.84284" rx="0.5" fill="#333333"/>
<rect x="170.77" y="85.3836" width="2.84284" height="2.84284" rx="0.5" fill="#333333"/>
<rect x="185.001" y="85.3836" width="2.84284" height="2.84284" rx="0.5" fill="#333333"/>
<rect x="199.232" y="85.3836" width="2.84284" height="2.84284" rx="0.5" fill="#333333"/>
<rect x="213.463" y="85.3836" width="2.84284" height="2.84284" rx="0.5" fill="#333333"/>
<rect x="227.695" y="85.3836" width="2.84284" height="2.84284" rx="0.5" fill="#333333"/>
<rect x="241.926" y="85.3836" width="2.84284" height="2.84284" rx="0.5" fill="#333333"/>
<rect x="256.157" y="85.3836" width="2.84284" height="2.84284" rx="0.5" fill="#333333"/>
<rect y="99.6149" width="2.84284" height="2.84284" rx="0.5" fill="#333333"/>
<rect x="14.231" y="99.6144" width="2.84284" height="2.84284" rx="0.5" fill="#333333"/>
<rect x="28.4622" y="99.6144" width="2.84284" height="2.84284" rx="0.5" fill="#333333"/>
<rect x="42.6936" y="99.6144" width="2.84284" height="2.84284" rx="0.5" fill="#333333"/>
<rect x="71.1533" y="99.6144" width="2.84284" height="2.84284" rx="0.5" fill="#333333"/>
<rect x="85.3845" y="99.6144" width="2.84284" height="2.84284" rx="0.5" fill="#333333"/>
<rect x="99.616" y="99.6144" width="2.84284" height="2.84284" rx="0.5" fill="#333333"/>
<rect x="113.847" y="99.6144" width="2.84284" height="2.84284" rx="0.5" fill="#333333"/>
<rect x="128.078" y="99.6144" width="2.84284" height="2.84284" rx="0.5" fill="#333333"/>
<rect x="142.31" y="99.6144" width="2.84284" height="2.84284" rx="0.5" fill="#333333"/>
<rect x="156.538" y="99.6144" width="2.84284" height="2.84284" rx="0.5" fill="#333333"/>
<rect x="170.77" y="99.6144" width="2.84284" height="2.84284" rx="0.5" fill="#333333"/>
<rect x="185.001" y="99.6144" width="2.84284" height="2.84284" rx="0.5" fill="#333333"/>
<rect x="199.232" y="99.6144" width="2.84284" height="2.84284" rx="0.5" fill="#333333"/>
<rect x="213.463" y="99.6144" width="2.84284" height="2.84284" rx="0.5" fill="#333333"/>
<rect x="227.695" y="99.6144" width="2.84284" height="2.84284" rx="0.5" fill="#333333"/>
<rect x="241.926" y="99.6144" width="2.84284" height="2.84284" rx="0.5" fill="#333333"/>
<rect x="256.157" y="99.6144" width="2.84284" height="2.84284" rx="0.5" fill="#333333"/>
<rect y="113.846" width="2.84284" height="2.84284" rx="0.5" fill="#333333"/>
<rect x="14.231" y="113.846" width="2.84284" height="2.84284" rx="0.5" fill="#333333"/>
<rect x="28.4622" y="113.846" width="2.84284" height="2.84284" rx="0.5" fill="#333333"/>
<rect x="56.9219" y="113.846" width="2.84284" height="2.84284" rx="0.5" fill="#333333"/>
<rect x="71.1533" y="113.846" width="2.84284" height="2.84284" rx="0.5" fill="#333333"/>
<rect x="85.3845" y="113.846" width="2.84284" height="2.84284" rx="0.5" fill="#333333"/>
<rect x="99.616" y="113.846" width="2.84284" height="2.84284" rx="0.5" fill="#333333"/>
<rect x="113.847" y="113.846" width="2.84284" height="2.84284" rx="0.5" fill="#333333"/>
<rect x="128.078" y="113.846" width="2.84284" height="2.84284" rx="0.5" fill="#333333"/>
<rect x="142.31" y="113.846" width="2.84284" height="2.84284" rx="0.5" fill="#333333"/>
<rect x="156.538" y="113.846" width="2.84284" height="2.84284" rx="0.5" fill="#333333"/>
<rect x="170.77" y="113.846" width="2.84284" height="2.84284" rx="0.5" fill="#333333"/>
<rect x="199.232" y="113.846" width="2.84284" height="2.84284" rx="0.5" fill="#333333"/>
<rect x="213.463" y="113.846" width="2.84284" height="2.84284" rx="0.5" fill="#333333"/>
<rect x="227.695" y="113.846" width="2.84284" height="2.84284" rx="0.5" fill="#333333"/>
<rect x="241.926" y="113.846" width="2.84284" height="2.84284" rx="0.5" fill="#333333"/>
<rect x="256.157" y="113.846" width="2.84284" height="2.84284" rx="0.5" fill="#333333"/>
<rect y="128.076" width="2.84284" height="2.84284" rx="0.5" fill="#333333"/>
<rect x="14.231" y="128.076" width="2.84284" height="2.84284" rx="0.5" fill="#333333"/>
<rect x="28.4622" y="128.076" width="2.84284" height="2.84284" rx="0.5" fill="#333333"/>
<rect x="42.6936" y="128.076" width="2.84284" height="2.84284" rx="0.5" fill="#333333"/>
<rect x="56.9219" y="128.076" width="2.84284" height="2.84284" rx="0.5" fill="#333333"/>
<rect x="71.1533" y="128.076" width="2.84284" height="2.84284" rx="0.5" fill="#333333"/>
<rect x="99.616" y="128.076" width="2.84284" height="2.84284" rx="0.5" fill="#333333"/>
<rect x="113.847" y="128.076" width="2.84284" height="2.84284" rx="0.5" fill="#333333"/>
<rect x="128.078" y="128.076" width="2.84284" height="2.84284" rx="0.5" fill="#333333"/>
<rect x="156.538" y="128.076" width="2.84284" height="2.84284" rx="0.5" fill="#333333"/>
<rect x="170.77" y="128.076" width="2.84284" height="2.84284" rx="0.5" fill="#333333"/>
<rect x="185.001" y="128.076" width="2.84284" height="2.84284" rx="0.5" fill="#333333"/>
<rect x="199.232" y="128.076" width="2.84284" height="2.84284" rx="0.5" fill="#333333"/>
<rect x="213.463" y="128.076" width="2.84284" height="2.84284" rx="0.5" fill="#333333"/>
<rect x="227.695" y="128.076" width="2.84284" height="2.84284" rx="0.5" fill="#333333"/>
<rect x="241.926" y="128.076" width="2.84284" height="2.84284" rx="0.5" fill="#333333"/>
<rect x="256.157" y="128.076" width="2.84284" height="2.84284" rx="0.5" fill="#333333"/>
<rect y="142.307" width="2.84284" height="2.84284" rx="0.5" fill="#333333"/>
<rect x="14.231" y="142.307" width="2.84284" height="2.84284" rx="0.5" fill="#333333"/>
<rect x="28.4622" y="142.307" width="2.84284" height="2.84284" rx="0.5" fill="#333333"/>
<rect x="42.6936" y="142.307" width="2.84284" height="2.84284" rx="0.5" fill="#333333"/>
<rect x="56.9219" y="142.307" width="2.84284" height="2.84284" rx="0.5" fill="#333333"/>
<rect x="71.1533" y="142.307" width="2.84284" height="2.84284" rx="0.5" fill="#333333"/>
<rect x="85.3845" y="142.307" width="2.84284" height="2.84284" rx="0.5" fill="#333333"/>
<rect x="99.616" y="142.307" width="2.84284" height="2.84284" rx="0.5" fill="#333333"/>
<rect x="113.847" y="142.307" width="2.84284" height="2.84284" rx="0.5" fill="#333333"/>
<rect x="128.078" y="142.307" width="2.84284" height="2.84284" rx="0.5" fill="#333333"/>
<rect x="142.31" y="142.307" width="2.84284" height="2.84284" rx="0.5" fill="#333333"/>
<rect x="156.538" y="142.307" width="2.84284" height="2.84284" rx="0.5" fill="#333333"/>
<rect x="185.001" y="142.307" width="2.84284" height="2.84284" rx="0.5" fill="#333333"/>
<rect x="199.232" y="142.307" width="2.84284" height="2.84284" rx="0.5" fill="#333333"/>
<rect x="213.463" y="142.307" width="2.84284" height="2.84284" rx="0.5" fill="#333333"/>
<rect x="227.695" y="142.307" width="2.84284" height="2.84284" rx="0.5" fill="#333333"/>
<rect x="241.926" y="142.307" width="2.84284" height="2.84284" rx="0.5" fill="#333333"/>
<rect x="256.157" y="142.307" width="2.84284" height="2.84284" rx="0.5" fill="#333333"/>
<rect y="156.538" width="2.84284" height="2.84284" rx="0.5" fill="#333333"/>
<rect x="14.231" y="156.537" width="2.84284" height="2.84284" rx="0.5" fill="#333333"/>
<rect x="42.6936" y="156.537" width="2.84284" height="2.84284" rx="0.5" fill="#333333"/>
<rect x="56.9219" y="156.537" width="2.84284" height="2.84284" rx="0.5" fill="#333333"/>
<rect x="85.3845" y="156.537" width="2.84284" height="2.84284" rx="0.5" fill="#333333"/>
<rect x="99.616" y="156.537" width="2.84284" height="2.84284" rx="0.5" fill="#333333"/>
<rect x="113.847" y="156.537" width="2.84284" height="2.84284" rx="0.5" fill="#333333"/>
<rect x="128.078" y="156.537" width="2.84284" height="2.84284" rx="0.5" fill="#333333"/>
<rect x="142.31" y="156.537" width="2.84284" height="2.84284" rx="0.5" fill="#333333"/>
<rect x="156.538" y="156.537" width="2.84284" height="2.84284" rx="0.5" fill="#333333"/>
<rect x="170.77" y="156.537" width="2.84284" height="2.84284" rx="0.5" fill="#333333"/>
<rect x="185.001" y="156.537" width="2.84284" height="2.84284" rx="0.5" fill="#333333"/>
<rect x="199.232" y="156.537" width="2.84284" height="2.84284" rx="0.5" fill="#333333"/>
<rect x="213.463" y="156.537" width="2.84284" height="2.84284" rx="0.5" fill="#333333"/>
<rect x="227.695" y="156.537" width="2.84284" height="2.84284" rx="0.5" fill="#333333"/>
<rect x="241.926" y="156.537" width="2.84284" height="2.84284" rx="0.5" fill="#333333"/>
<rect x="256.157" y="156.537" width="2.84284" height="2.84284" rx="0.5" fill="#333333"/>
<rect y="170.768" width="2.84284" height="2.84284" rx="0.5" fill="#333333"/>
<rect x="14.231" y="170.767" width="2.84284" height="2.84284" rx="0.5" fill="#333333"/>
<rect x="28.4622" y="170.767" width="2.84284" height="2.84284" rx="0.5" fill="#333333"/>
<rect x="42.6936" y="170.767" width="2.84284" height="2.84284" rx="0.5" fill="#333333"/>
<rect x="56.9219" y="170.767" width="2.84284" height="2.84284" rx="0.5" fill="#333333"/>
<rect x="71.1533" y="170.767" width="2.84284" height="2.84284" rx="0.5" fill="#333333"/>
<rect x="85.3845" y="170.767" width="2.84284" height="2.84284" rx="0.5" fill="#333333"/>
<rect x="99.616" y="170.767" width="2.84284" height="2.84284" rx="0.5" fill="#333333"/>
<rect x="113.847" y="170.767" width="2.84284" height="2.84284" rx="0.5" fill="#333333"/>
<rect x="128.078" y="170.767" width="2.84284" height="2.84284" rx="0.5" fill="#333333"/>
<rect x="142.31" y="170.767" width="2.84284" height="2.84284" rx="0.5" fill="#333333"/>
<rect x="156.538" y="170.767" width="2.84284" height="2.84284" rx="0.5" fill="#333333"/>
<rect x="170.77" y="170.767" width="2.84284" height="2.84284" rx="0.5" fill="#333333"/>
<rect x="185.001" y="170.767" width="2.84284" height="2.84284" rx="0.5" fill="#333333"/>
<rect x="199.232" y="170.767" width="2.84284" height="2.84284" rx="0.5" fill="#333333"/>
<rect x="227.695" y="170.767" width="2.84284" height="2.84284" rx="0.5" fill="#333333"/>
<rect x="241.926" y="170.767" width="2.84284" height="2.84284" rx="0.5" fill="#333333"/>
<rect x="256.157" y="170.767" width="2.84284" height="2.84284" rx="0.5" fill="#333333"/>
<rect y="184.999" width="2.84284" height="2.84284" rx="0.5" fill="#333333"/>
<rect x="14.231" y="184.998" width="2.84284" height="2.84284" rx="0.5" fill="#333333"/>
<rect x="28.4622" y="184.998" width="2.84284" height="2.84284" rx="0.5" fill="#333333"/>
<rect x="42.6936" y="184.998" width="2.84284" height="2.84284" rx="0.5" fill="#333333"/>
<rect x="71.1533" y="184.998" width="2.84284" height="2.84284" rx="0.5" fill="#333333"/>
<rect x="85.3845" y="184.998" width="2.84284" height="2.84284" rx="0.5" fill="#333333"/>
<rect x="99.616" y="184.998" width="2.84284" height="2.84284" rx="0.5" fill="#333333"/>
<rect x="113.847" y="184.998" width="2.84284" height="2.84284" rx="0.5" fill="#333333"/>
<rect x="128.078" y="184.998" width="2.84284" height="2.84284" rx="0.5" fill="#333333"/>
<rect x="142.31" y="184.998" width="2.84284" height="2.84284" rx="0.5" fill="#333333"/>
<rect x="156.538" y="184.998" width="2.84284" height="2.84284" rx="0.5" fill="#333333"/>
<rect x="170.77" y="184.998" width="2.84284" height="2.84284" rx="0.5" fill="#333333"/>
<rect x="185.001" y="184.998" width="2.84284" height="2.84284" rx="0.5" fill="#333333"/>
<rect x="199.232" y="184.998" width="2.84284" height="2.84284" rx="0.5" fill="#333333"/>
<rect x="213.463" y="184.998" width="2.84284" height="2.84284" rx="0.5" fill="#333333"/>
<rect x="227.695" y="184.998" width="2.84284" height="2.84284" rx="0.5" fill="#333333"/>
<rect x="241.926" y="184.998" width="2.84284" height="2.84284" rx="0.5" fill="#333333"/>
<rect x="256.157" y="184.998" width="2.84284" height="2.84284" rx="0.5" fill="#333333"/>
<rect x="241.926" y="14.2306" width="2.84284" height="2.84284" rx="0.5" fill="#333333"/>
<rect x="56.9224" y="28.462" width="2.84284" height="2.84284" rx="0.5" fill="#333333"/>
<rect x="227.695" y="28.462" width="2.84284" height="2.84284" rx="0.5" fill="#333333"/>
<rect x="213.463" y="42.6927" width="2.84284" height="2.84284" rx="0.5" fill="#333333"/>
<rect x="14.2312" y="56.9233" width="2.84284" height="2.84284" rx="0.5" fill="#333333"/>
<rect x="185.001" y="56.9233" width="2.84284" height="2.84284" rx="0.5" fill="#333333"/>
<rect x="71.1536" y="71.1539" width="2.84284" height="2.84284" rx="0.5" fill="#333333"/>
<rect x="128.079" y="85.3837" width="2.84284" height="2.84284" rx="0.5" fill="#333333"/>
<rect x="56.9224" y="99.6143" width="2.84284" height="2.84284" rx="0.5" fill="#333333"/>
<rect x="42.6938" y="113.846" width="2.84284" height="2.84284" rx="0.5" fill="#333333"/>
<rect x="185.001" y="113.846" width="2.84284" height="2.84284" rx="0.5" fill="#333333"/>
<rect x="85.3848" y="128.076" width="2.84284" height="2.84284" rx="0.5" fill="#333333"/>
<rect x="142.31" y="128.076" width="2.84284" height="2.84284" rx="0.5" fill="#333333"/>
<rect x="170.77" y="142.307" width="2.84284" height="2.84284" rx="0.5" fill="#333333"/>
<rect x="28.4626" y="156.537" width="2.84284" height="2.84284" rx="0.5" fill="#333333"/>
<rect x="71.1536" y="156.537" width="2.84284" height="2.84284" rx="0.5" fill="#333333"/>
<rect x="213.463" y="170.768" width="2.84284" height="2.84284" rx="0.5" fill="#333333"/>
<rect x="56.9224" y="184.998" width="2.84284" height="2.84284" rx="0.5" fill="#333333"/>
</g>
</svg>
