<svg width="58" height="42" viewBox="0 0 58 42" fill="none" xmlns="http://www.w3.org/2000/svg">
<g clip-path="url(#clip0)">
<path d="M57.3001 38.1C57.3001 38 57.3001 37.9 57.3001 37.9L52.9001 28.4V3.2C52.9001 1.4 51.5001 0 49.7001 0H7.7001C5.9001 0 4.5001 1.4 4.5001 3.2V28.3L0.100098 37.8C0.100098 37.9 0.100098 38 0.100098 38V38.1C0.300098 39.9 1.5001 41 3.3001 41H54.3001C56.1001 41 57.2001 39.9 57.4001 38.1C57.4001 38.2 57.3001 38.1 57.3001 38.1ZM6.0001 3.2C6.0001 2.2 6.8001 1.5 7.7001 1.5H49.6001C50.5001 1.5 51.3001 2.3 51.3001 3.2V27.7H6.0001V3.2ZM5.7001 29.3H51.6001L55.4001 37.4H1.9001L5.7001 29.3ZM54.2001 39.7H3.2001C2.7001 39.7 2.1001 39.6 1.7001 38.9H55.6001C55.3001 39.5 54.7001 39.7 54.2001 39.7Z" fill="white"/>
<path d="M34.5001 33C34.4001 32.7 34.1001 32.6 33.8001 32.6H23.8001C23.5001 32.6 23.2001 32.8 23.1001 33L22.1001 35.1C22.0001 35.3 22.0001 35.6 22.1001 35.8C22.2001 36 22.5001 36.1 22.7001 36.1H34.7001C35.0001 36.1 35.2001 36 35.3001 35.8C35.4001 35.6 35.5001 35.3 35.3001 35.1L34.5001 33ZM24.0001 34.6L24.3001 34H33.4001L33.7001 34.6H24.0001Z" fill="white"/>
<path fill-rule="evenodd" clip-rule="evenodd" d="M19 7.1H20.4C20.4 8.7 21.7 9.9 23.2 9.9C24.8 9.9 26 8.6 26 7.1H27.4V15.7H26C26 14.1 24.7 12.8 23.2 12.8C21.6 12.8 20.4 14.1 20.4 15.7H19V7.1Z" fill="#B377B2"/>
<path fill-rule="evenodd" clip-rule="evenodd" d="M23.3 24.7C21.7 24.7 20.5 23.4 20.5 21.9C20.5 20.3 21.8 19 23.3 19C24.9 19 26.1 20.3 26.1 21.9C26.1 23.4 24.8 24.7 23.3 24.7ZM19 17.5H27.6V26.1H19V17.5Z" fill="#B377B2"/>
<path fill-rule="evenodd" clip-rule="evenodd" d="M29.8 22.2H31.2001C31.2001 20.6 32.5 19.3 34.1 19.3C35.7 19.3 36.9001 20.6 36.9001 22.2H38.3V13.6H36.9001C36.9001 15.2 35.6 16.4 34.1 16.4C32.6 16.4 31.2001 15.1 31.2001 13.6H29.8V22.2Z" fill="#B377B2"/>
<path fill-rule="evenodd" clip-rule="evenodd" d="M34.1 4.6C32.5 4.6 31.2001 5.9 31.2001 7.4C31.2001 8.9 32.5 10.2 34.1 10.2C35.7 10.2 36.9001 8.9 36.9001 7.4C36.9001 5.9 35.7 4.6 34.1 4.6ZM29.8 11.7H38.4001V3.2H29.8V11.7Z" fill="#B377B2"/>
</g>
<defs>
<clipPath id="clip0">
<rect width="57.4" height="41.2" fill="white"/>
</clipPath>
</defs>
</svg>
