<svg width="58" height="47" viewBox="0 0 58 47" fill="none" xmlns="http://www.w3.org/2000/svg">
<g clip-path="url(#clip0)">
<path d="M56.7001 26.6H0.800049V33H56.7001V26.6Z" fill="#B377B2"/>
<path d="M52.4 0H5C2.2 0 0 2.2 0 5V35.6C0 38.4 2.2 40.6 5 40.6H23.1L22.5 45H18C17.6 45 17.2 45.3 17.2 45.8C17.2 46.3 17.5 46.6 18 46.6H39.3C39.7 46.6 40.1 46.3 40.1 45.8C40.1 45.3 39.7 45 39.3 45H34.8L34.2 40.6H52.4C55.1 40.6 57.4 38.4 57.4 35.6V5C57.4 2.2 55.1 0 52.4 0ZM5 1.5H52.4C54.3 1.5 55.9 3.1 55.9 5V32.3H1.5V5C1.5 3.1 3.1 1.5 5 1.5ZM33.3 45H24L24.6 40.6H32.6L33.3 45ZM52.4 39.1H5C3.1 39.1 1.5 37.5 1.5 35.6V33.8H55.9V35.6C55.9 37.5 54.3 39.1 52.4 39.1ZM31.2 36.3C31.2 36.7 30.9 37.1 30.4 37.1H26.9C26.5 37.1 26.1 36.8 26.1 36.3C26.1 35.8 26.4 35.5 26.9 35.5H30.4C30.8 35.6 31.2 35.9 31.2 36.3ZM25.9 17.9C25.8 17.9 25.7 17.9 25.6 17.8C25.4 17.7 25.2 17.4 25.2 17.1V6C25.2 5.7 25.4 5.5 25.6 5.3C25.8 5.2 26.1 5.2 26.4 5.3L34.4 10.9C34.6 11 34.7 11.3 34.7 11.5C34.7 11.7 34.6 12 34.4 12.1L26.4 17.7C26.2 17.9 26.1 17.9 25.9 17.9ZM26.7 7.4V15.7L32.6 11.5L26.7 7.4ZM53.6 23.4C53.6 23.8 53.3 24.2 52.8 24.2H11.6V25.7C11.6 26.1 11.3 26.5 10.8 26.5C10.3 26.5 10 26.2 10 25.7V24.2H4.5C4.1 24.2 3.7 23.9 3.7 23.4C3.7 22.9 4 22.6 4.5 22.6H10.1V21.1C10.1 20.7 10.4 20.3 10.9 20.3C11.4 20.3 11.7 20.6 11.7 21.1V22.6H53C53.3 22.7 53.6 23 53.6 23.4Z" fill="white"/>
</g>
<defs>
<clipPath id="clip0">
<rect width="57.4" height="46.5" fill="white"/>
</clipPath>
</defs>
</svg>
