<svg width="59" height="47" viewBox="0 0 59 47" fill="none" xmlns="http://www.w3.org/2000/svg">
<g clip-path="url(#clip0)">
<path d="M52.8 0H5.6C2.5 0 0 2.5 0 5.6V40.8C0 43.9 2.5 46.4 5.6 46.4H52.8C55.9 46.4 58.4 43.9 58.4 40.8V5.6C58.5 2.5 55.9 0 52.8 0ZM5.6 1.5H52.8C55.1 1.5 56.9 3.4 56.9 5.6V7.2H1.5V5.6C1.5 3.4 3.4 1.5 5.6 1.5ZM52.8 45H5.6C3.3 45 1.5 43.1 1.5 40.9V8.8H57V40.9C57 43.1 55.1 45 52.8 45Z" fill="white"/>
<path d="M52.8 10.4H47.9C47.5 10.4 47.1 10.7 47.1 11.2C47.1 11.7 47.4 12 47.9 12H52.8C53.4 12 53.8 12.4 53.8 13V17.9C53.8 18.3 54.1 18.7 54.6 18.7C55.1 18.7 55.4 18.4 55.4 17.9V13C55.3 11.5 54.2 10.4 52.8 10.4Z" fill="white"/>
<path d="M10.5 41.9H5.59998C4.99998 41.9 4.59998 41.5 4.59998 40.9V36C4.59998 35.6 4.29998 35.2 3.79998 35.2C3.29998 35.2 3.09998 35.6 3.09998 36V40.9C3.09998 42.3 4.19998 43.4 5.59998 43.4H10.5C10.9 43.4 11.3 43.1 11.3 42.6C11.3 42.1 10.9 41.9 10.5 41.9Z" fill="white"/>
<path d="M6.50005 5.1H9.00005C9.40005 5.1 9.80005 4.8 9.80005 4.3C9.80005 3.8 9.50005 3.6 9.10005 3.6H6.50005C6.10005 3.6 5.80005 4 5.80005 4.4C5.80005 4.8 6.10005 5.1 6.50005 5.1Z" fill="white"/>
<path d="M12.8 5.1H15.3C15.7 5.1 16.1 4.8 16.1 4.3C16.1 3.8 15.8 3.5 15.3 3.5H12.8C12.3 3.6 12 4 12 4.4C12 4.8 12.3 5.1 12.8 5.1Z" fill="white"/>
<path d="M19 5.1H21.5C21.9 5.1 22.2999 4.8 22.2999 4.3C22.2999 3.8 22 3.6 21.5 3.6H19C18.6 3.6 18.2 3.9 18.2 4.4C18.2 4.9 18.6 5.1 19 5.1Z" fill="white"/>
<path fill-rule="evenodd" clip-rule="evenodd" d="M29.2 35.6C23.3 32.3 20.1 26.8 19.9 19.1C23.7 19.4 26.9 18.4 29.2 15.7C31.5 18.4 34.7 19.4 38.5 19.1C38.3 26.8 35.1 32.2 29.2 35.6Z" fill="#B377B2"/>
</g>
<defs>
<clipPath id="clip0">
<rect width="58.5" height="46.5" fill="white"/>
</clipPath>
</defs>
</svg>
