<svg width="21" height="21" viewBox="0 0 21 21" fill="none" xmlns="http://www.w3.org/2000/svg">
<path fill-rule="evenodd" clip-rule="evenodd" d="M16.1329 21C15.7308 20.878 15.3431 20.792 14.9841 20.6486C11.2793 19.114 7.87595 17.1348 5.17628 14.1014C3.63976 12.3732 2.44071 10.4298 1.42115 8.36456C0.940092 7.38929 0.530834 6.371 0.121575 5.35989C-0.251784 4.44199 0.301074 3.48824 0.882652 2.79982C1.43551 2.14725 2.13915 1.65245 2.90023 1.28673C3.49616 0.999886 4.08492 1.16482 4.5229 1.67397C5.46348 2.76397 6.33225 3.9185 7.03589 5.18061C7.46669 5.96225 7.35181 6.916 6.56919 7.43949C6.38251 7.56857 6.2102 7.71916 6.0307 7.86258C5.87274 7.99166 5.72914 8.12074 5.62144 8.29285C5.42758 8.60837 5.41322 8.98127 5.54246 9.32548C6.50457 11.9716 8.13443 14.0297 10.7982 15.134C11.229 15.3133 11.6526 15.5213 12.148 15.4639C12.9737 15.3707 13.2394 14.4671 13.8138 13.9938C14.381 13.5349 15.099 13.5277 15.7021 13.915C16.3052 14.3022 16.9012 14.7109 17.4828 15.1269C18.0572 15.5356 18.6316 15.9372 19.1629 16.4033C19.6726 16.8551 19.845 17.4431 19.5578 18.0455C19.0336 19.157 18.2726 20.0892 17.1668 20.6773C16.8581 20.835 16.4847 20.8924 16.1329 21C15.7308 20.878 16.4847 20.8924 16.1329 21Z" fill="white"/>
<path fill-rule="evenodd" clip-rule="evenodd" d="M10.4321 0.00318713C15.2786 0.139437 19.2563 3.35207 20.1036 8.13516C20.2472 8.95266 20.2974 9.7845 20.362 10.6092C20.3908 10.9606 20.1897 11.2904 19.8164 11.2904C19.4286 11.2976 19.2563 10.9677 19.2276 10.6235C19.1773 9.9351 19.1414 9.24668 19.0481 8.55825C18.5455 4.95838 15.6663 1.97523 12.0763 1.337C11.5378 1.24378 10.9778 1.2151 10.4393 1.15773C10.0947 1.12187 9.64233 1.10036 9.56335 0.670095C9.49873 0.311543 9.80029 0.0247003 10.1449 0.00318713C10.2455 -0.00398392 10.3388 0.00318713 10.4321 0.00318713C15.2714 0.139437 10.3388 0.00318713 10.4321 0.00318713Z" fill="white"/>
<path fill-rule="evenodd" clip-rule="evenodd" d="M17.7917 9.53335C17.7845 9.59789 17.7774 9.73414 17.7415 9.87039C17.6122 10.358 16.8799 10.4154 16.7075 9.92776C16.6573 9.78434 16.6501 9.6194 16.6501 9.46164C16.6501 8.43618 16.4275 7.41789 15.9106 6.52151C15.3792 5.60361 14.5679 4.83631 13.613 4.37019C13.0386 4.09052 12.4139 3.91124 11.7821 3.80368C11.5021 3.76065 11.2292 3.73197 10.9492 3.68894C10.6117 3.63874 10.4322 3.43078 10.4466 3.10091C10.461 2.79256 10.6907 2.57026 11.0282 2.59177C12.1411 2.65631 13.2109 2.89295 14.2017 3.41644C16.2121 4.47776 17.3609 6.15578 17.6912 8.39315C17.7056 8.49355 17.7343 8.59394 17.7415 8.70151C17.763 8.95249 17.7702 9.20348 17.7917 9.53335C17.7845 9.59072 17.7702 9.20348 17.7917 9.53335Z" fill="white"/>
<path fill-rule="evenodd" clip-rule="evenodd" d="M14.7759 9.41863C14.3739 9.4258 14.1585 9.2035 14.1154 8.8306C14.0867 8.57244 14.0651 8.30711 14.0005 8.05613C13.8784 7.56132 13.6128 7.10238 13.1964 6.79402C13.0025 6.6506 12.7799 6.54304 12.543 6.4785C12.2486 6.39244 11.9399 6.41396 11.6383 6.34225C11.3152 6.26336 11.1357 6.00521 11.186 5.69685C11.2291 5.42435 11.5019 5.20922 11.7963 5.23073C13.6774 5.36698 15.0129 6.33507 15.2067 8.54376C15.2211 8.70152 15.2354 8.86646 15.1996 9.00988C15.1493 9.27521 14.9626 9.40428 14.7759 9.41863C14.3739 9.4258 14.9626 9.40428 14.7759 9.41863Z" fill="white"/>
</svg>
