<svg width="1920" height="195" viewBox="0 0 1920 195" fill="none" xmlns="http://www.w3.org/2000/svg">
<path fill-rule="evenodd" clip-rule="evenodd" d="M1858.26 147.12H1862.78C1862.78 152.03 1866.88 156.123 1871.8 156.123C1876.72 156.123 1880.82 152.03 1880.82 147.12H1885.34V174.334H1880.82C1880.82 169.423 1876.72 165.331 1871.8 165.331C1866.88 165.331 1862.78 169.423 1862.78 174.334H1858.26V147.12ZM1862.98 195C1862.98 194.591 1862.78 194.182 1862.78 193.772C1862.78 188.861 1866.88 184.769 1871.8 184.769C1876.72 184.769 1880.82 188.861 1880.82 193.772C1880.82 194.182 1880.82 194.591 1880.62 195H1885.34V180.063H1858.26V195H1862.98ZM1892.72 195H1897.23C1897.23 190.089 1901.34 185.997 1906.26 185.997C1911.18 185.997 1915.28 190.089 1915.28 195H1919.8V167.991H1915.28C1915.28 172.901 1911.18 176.994 1906.26 176.994C1901.34 176.994 1897.23 172.901 1897.23 167.991H1892.72V195ZM1906.26 139.344C1901.34 139.344 1897.23 143.437 1897.23 148.347C1897.23 153.258 1901.34 157.35 1906.26 157.35C1911.18 157.35 1915.28 153.258 1915.28 148.347C1915.28 143.437 1911.18 139.344 1906.26 139.344ZM1892.72 162.057H1920V134.843H1892.72V162.057ZM1858.26 79.596H1862.78C1862.78 84.5068 1866.88 88.5992 1871.8 88.5992C1876.72 88.5992 1880.82 84.5068 1880.82 79.596H1885.34V106.81H1880.82C1880.82 101.899 1876.72 97.8069 1871.8 97.8069C1866.88 97.8069 1862.78 101.899 1862.78 106.81H1858.26V79.596ZM1871.8 135.456C1866.88 135.456 1862.78 131.364 1862.78 126.453C1862.78 121.542 1866.88 117.45 1871.8 117.45C1876.72 117.45 1880.82 121.542 1880.82 126.453C1880.82 131.364 1876.93 135.456 1871.8 135.456ZM1858.26 112.744H1885.54V139.958H1858.26V112.744ZM1892.72 127.681H1897.23C1897.23 122.77 1901.34 118.678 1906.26 118.678C1911.18 118.678 1915.28 122.77 1915.28 127.681H1919.8V100.467H1915.28C1915.28 105.378 1911.18 109.47 1906.26 109.47C1901.34 109.47 1897.23 105.378 1897.23 100.467H1892.72V127.681ZM1906.26 72.0252C1901.34 72.0252 1897.23 76.1175 1897.23 81.0283C1897.23 85.9391 1901.34 90.0315 1906.26 90.0315C1911.18 90.0315 1915.28 85.9391 1915.28 81.0283C1915.28 76.1175 1911.18 72.0252 1906.26 72.0252ZM1892.72 94.5331H1920V67.319H1892.72V94.5331ZM1858.26 12.277H1862.78C1862.78 17.1878 1866.88 21.2802 1871.8 21.2802C1876.72 21.2802 1880.82 17.1878 1880.82 12.277H1885.34V39.4911H1880.82C1880.82 34.5803 1876.72 30.4879 1871.8 30.4879C1866.88 30.4879 1862.78 34.5803 1862.78 39.4911H1858.26V12.277ZM1871.8 67.9328C1866.88 67.9328 1862.78 63.8405 1862.78 58.9297C1862.78 54.0189 1866.88 49.9265 1871.8 49.9265C1876.72 49.9265 1880.82 54.0189 1880.82 58.9297C1880.82 63.8405 1876.93 67.9328 1871.8 67.9328ZM1858.26 45.425H1885.54V72.639H1858.26V45.425ZM1892.72 60.362H1897.23C1897.23 55.4512 1901.34 51.3589 1906.26 51.3589C1911.18 51.3589 1915.28 55.4512 1915.28 60.362H1919.8V33.148H1915.28C1915.28 38.0588 1911.18 42.1511 1906.26 42.1511C1901.34 42.1511 1897.23 38.0588 1897.23 33.148H1892.72V60.362ZM1906.26 4.50157C1901.34 4.50157 1897.23 8.59391 1897.23 13.5047C1897.23 18.4155 1901.34 22.5079 1906.26 22.5079C1911.18 22.5079 1915.28 18.4155 1915.28 13.5047C1915.28 8.59391 1911.18 4.50157 1906.26 4.50157ZM1892.72 27.2141H1920V0H1892.72V27.2141ZM1789.35 147.12H1793.86C1793.86 152.03 1797.96 156.123 1802.88 156.123C1807.81 156.123 1811.91 152.03 1811.91 147.12H1816.42V174.334H1811.91C1811.91 169.423 1807.81 165.331 1802.88 165.331C1797.96 165.331 1793.86 169.423 1793.86 174.334H1789.35V147.12ZM1794.06 195C1794.06 194.591 1793.86 194.182 1793.86 193.772C1793.86 188.861 1797.96 184.769 1802.88 184.769C1807.81 184.769 1811.91 188.861 1811.91 193.772C1811.91 194.182 1811.91 194.591 1811.7 195H1816.42V180.063H1789.14V195H1794.06ZM1823.81 195H1828.32C1828.32 190.089 1832.42 185.997 1837.34 185.997C1842.26 185.997 1846.37 190.089 1846.37 195H1850.88V167.991H1846.37C1846.37 172.901 1842.26 176.994 1837.34 176.994C1832.42 176.994 1828.32 172.901 1828.32 167.991H1823.81V195ZM1837.55 139.344C1832.62 139.344 1828.52 143.437 1828.52 148.347C1828.52 153.258 1832.62 157.35 1837.55 157.35C1842.47 157.35 1846.57 153.258 1846.57 148.347C1846.57 143.437 1842.47 139.344 1837.55 139.344ZM1823.81 162.057H1851.08V134.843H1823.81V162.057ZM1789.35 79.596H1793.86C1793.86 84.5068 1797.96 88.5992 1802.88 88.5992C1807.81 88.5992 1811.91 84.5068 1811.91 79.596H1816.42V106.81H1811.91C1811.91 101.899 1807.81 97.8069 1802.88 97.8069C1797.96 97.8069 1793.86 101.899 1793.86 106.81H1789.35V79.596ZM1803.09 135.456C1798.17 135.456 1794.06 131.364 1794.06 126.453C1794.06 121.542 1798.17 117.45 1803.09 117.45C1808.01 117.45 1812.11 121.542 1812.11 126.453C1812.11 131.364 1808.01 135.456 1803.09 135.456ZM1789.35 112.744H1816.63V139.958H1789.35V112.744ZM1823.81 127.681H1828.32C1828.32 122.77 1832.42 118.678 1837.34 118.678C1842.26 118.678 1846.37 122.77 1846.37 127.681H1850.88V100.467H1846.37C1846.37 105.378 1842.26 109.47 1837.34 109.47C1832.42 109.47 1828.32 105.378 1828.32 100.467H1823.81V127.681ZM1837.55 72.0252C1832.62 72.0252 1828.52 76.1175 1828.52 81.0283C1828.52 85.9391 1832.62 90.0315 1837.55 90.0315C1842.47 90.0315 1846.57 85.9391 1846.57 81.0283C1846.57 76.1175 1842.47 72.0252 1837.55 72.0252ZM1823.81 94.5331H1851.08V67.319H1823.81V94.5331ZM1789.35 12.277H1793.86C1793.86 17.1878 1797.96 21.2802 1802.88 21.2802C1807.81 21.2802 1811.91 17.1878 1811.91 12.277H1816.42V39.4911H1811.91C1811.91 34.5803 1807.81 30.4879 1802.88 30.4879C1797.96 30.4879 1793.86 34.5803 1793.86 39.4911H1789.35V12.277ZM1803.09 67.9328C1798.17 67.9328 1794.06 63.8405 1794.06 58.9297C1794.06 54.0189 1798.17 49.9265 1803.09 49.9265C1808.01 49.9265 1812.11 54.0189 1812.11 58.9297C1812.11 63.8405 1808.01 67.9328 1803.09 67.9328ZM1789.35 45.425H1816.63V72.639H1789.35V45.425ZM1823.81 60.362H1828.32C1828.32 55.4512 1832.42 51.3589 1837.34 51.3589C1842.26 51.3589 1846.37 55.4512 1846.37 60.362H1850.88V33.148H1846.37C1846.37 38.0588 1842.26 42.1511 1837.34 42.1511C1832.42 42.1511 1828.32 38.0588 1828.32 33.148H1823.81V60.362ZM1837.55 4.50157C1832.62 4.50157 1828.52 8.59391 1828.52 13.5047C1828.52 18.4155 1832.62 22.5079 1837.55 22.5079C1842.47 22.5079 1846.57 18.4155 1846.57 13.5047C1846.57 8.59391 1842.47 4.50157 1837.55 4.50157ZM1823.81 27.2141H1851.08V0H1823.81V27.2141ZM1720.64 147.12H1725.15C1725.15 152.03 1729.25 156.123 1734.17 156.123C1739.1 156.123 1743.2 152.03 1743.2 147.12H1747.71V174.334H1743.2C1743.2 169.423 1739.1 165.331 1734.17 165.331C1729.25 165.331 1725.15 169.423 1725.15 174.334H1720.64V147.12ZM1725.35 195C1725.35 194.591 1725.35 194.182 1725.35 193.772C1725.35 188.861 1729.46 184.769 1734.38 184.769C1739.3 184.769 1743.4 188.861 1743.4 193.772C1743.4 194.182 1743.4 194.591 1743.4 195H1748.12V180.063H1720.84V195H1725.35ZM1754.89 195H1759.4C1759.4 190.089 1763.5 185.997 1768.43 185.997C1773.35 185.997 1777.45 190.089 1777.45 195H1781.96V167.991H1777.45C1777.45 172.901 1773.35 176.994 1768.43 176.994C1763.5 176.994 1759.4 172.901 1759.4 167.991H1754.89V195ZM1768.63 139.344C1763.71 139.344 1759.61 143.437 1759.61 148.347C1759.61 153.258 1763.71 157.35 1768.63 157.35C1773.55 157.35 1777.66 153.258 1777.66 148.347C1777.66 143.437 1773.55 139.344 1768.63 139.344ZM1754.89 162.057H1782.17V134.843H1754.89V162.057ZM1720.64 79.596H1725.15C1725.15 84.5068 1729.25 88.5992 1734.17 88.5992C1739.1 88.5992 1743.2 84.5068 1743.2 79.596H1747.71V106.81H1743.2C1743.2 101.899 1739.1 97.8069 1734.17 97.8069C1729.25 97.8069 1725.15 101.899 1725.15 106.81H1720.64V79.596ZM1734.17 135.456C1729.25 135.456 1725.15 131.364 1725.15 126.453C1725.15 121.542 1729.25 117.45 1734.17 117.45C1739.1 117.45 1743.2 121.542 1743.2 126.453C1743.2 131.364 1739.3 135.456 1734.17 135.456ZM1720.64 112.744H1747.92V139.958H1720.64V112.744ZM1754.89 127.681H1759.4C1759.4 122.77 1763.5 118.678 1768.43 118.678C1773.35 118.678 1777.45 122.77 1777.45 127.681H1781.96V100.467H1777.45C1777.45 105.378 1773.35 109.47 1768.43 109.47C1763.5 109.47 1759.4 105.378 1759.4 100.467H1754.89V127.681ZM1768.63 72.0252C1763.71 72.0252 1759.61 76.1175 1759.61 81.0283C1759.61 85.9391 1763.71 90.0315 1768.63 90.0315C1773.55 90.0315 1777.66 85.9391 1777.66 81.0283C1777.66 76.1175 1773.55 72.0252 1768.63 72.0252ZM1754.89 94.5331H1782.17V67.319H1754.89V94.5331ZM1720.64 12.277H1725.15C1725.15 17.1878 1729.25 21.2802 1734.17 21.2802C1739.1 21.2802 1743.2 17.1878 1743.2 12.277H1747.71V39.4911H1743.2C1743.2 34.5803 1739.1 30.4879 1734.17 30.4879C1729.25 30.4879 1725.15 34.5803 1725.15 39.4911H1720.64V12.277ZM1734.17 67.9328C1729.25 67.9328 1725.15 63.8405 1725.15 58.9297C1725.15 54.0189 1729.25 49.9265 1734.17 49.9265C1739.1 49.9265 1743.2 54.0189 1743.2 58.9297C1743.2 63.8405 1739.3 67.9328 1734.17 67.9328ZM1720.64 45.425H1747.92V72.639H1720.64V45.425ZM1754.89 60.362H1759.4C1759.4 55.4512 1763.5 51.3589 1768.43 51.3589C1773.35 51.3589 1777.45 55.4512 1777.45 60.362H1781.96V33.148H1777.45C1777.45 38.0588 1773.35 42.1511 1768.43 42.1511C1763.5 42.1511 1759.4 38.0588 1759.4 33.148H1754.89V60.362ZM1768.63 4.50157C1763.71 4.50157 1759.61 8.59391 1759.61 13.5047C1759.61 18.4155 1763.71 22.5079 1768.63 22.5079C1773.55 22.5079 1777.66 18.4155 1777.66 13.5047C1777.66 8.59391 1773.55 4.50157 1768.63 4.50157ZM1754.89 27.2141H1782.17V0H1754.89V27.2141ZM1651.72 147.12H1656.23C1656.23 152.03 1660.34 156.123 1665.26 156.123C1670.18 156.123 1674.28 152.03 1674.28 147.12H1678.8V174.334H1674.28C1674.28 169.423 1670.18 165.331 1665.26 165.331C1660.34 165.331 1656.23 169.423 1656.23 174.334H1651.72V147.12ZM1656.44 195C1656.44 194.591 1656.44 194.182 1656.44 193.772C1656.44 188.861 1660.54 184.769 1665.46 184.769C1670.39 184.769 1674.49 188.861 1674.49 193.772C1674.49 194.182 1674.49 194.591 1674.49 195H1679.21V180.063H1651.93V195H1656.44ZM1686.18 195H1690.69C1690.69 190.089 1694.79 185.997 1699.72 185.997C1704.64 185.997 1708.74 190.089 1708.74 195H1713.25V167.991H1708.74C1708.74 172.901 1704.64 176.994 1699.72 176.994C1694.79 176.994 1690.69 172.901 1690.69 167.991H1686.18V195ZM1699.72 139.344C1694.79 139.344 1690.69 143.437 1690.69 148.347C1690.69 153.258 1694.79 157.35 1699.72 157.35C1704.64 157.35 1708.74 153.258 1708.74 148.347C1708.74 143.437 1704.84 139.344 1699.72 139.344ZM1686.18 162.057H1713.46V134.843H1686.18V162.057ZM1651.72 79.596H1656.23C1656.23 84.5068 1660.34 88.5992 1665.26 88.5992C1670.18 88.5992 1674.28 84.5068 1674.28 79.596H1678.8V106.81H1674.28C1674.28 101.899 1670.18 97.8069 1665.26 97.8069C1660.34 97.8069 1656.23 101.899 1656.23 106.81H1651.72V79.596ZM1665.46 135.456C1660.54 135.456 1656.44 131.364 1656.44 126.453C1656.44 121.542 1660.54 117.45 1665.46 117.45C1670.39 117.45 1674.49 121.542 1674.49 126.453C1674.49 131.364 1670.39 135.456 1665.46 135.456ZM1651.72 112.744H1679V139.958H1651.72V112.744ZM1686.18 127.681H1690.69C1690.69 122.77 1694.79 118.678 1699.72 118.678C1704.64 118.678 1708.74 122.77 1708.74 127.681H1713.25V100.467H1708.74C1708.74 105.378 1704.64 109.47 1699.72 109.47C1694.79 109.47 1690.69 105.378 1690.69 100.467H1686.18V127.681ZM1699.72 72.0252C1694.79 72.0252 1690.69 76.1175 1690.69 81.0283C1690.69 85.9391 1694.79 90.0315 1699.72 90.0315C1704.64 90.0315 1708.74 85.9391 1708.74 81.0283C1708.74 76.1175 1704.84 72.0252 1699.72 72.0252ZM1686.18 94.5331H1713.46V67.319H1686.18V94.5331ZM1651.72 12.277H1656.23C1656.23 17.1878 1660.34 21.2802 1665.26 21.2802C1670.18 21.2802 1674.28 17.1878 1674.28 12.277H1678.8V39.4911H1674.28C1674.28 34.5803 1670.18 30.4879 1665.26 30.4879C1660.34 30.4879 1656.23 34.5803 1656.23 39.4911H1651.72V12.277ZM1665.46 67.9328C1660.54 67.9328 1656.44 63.8405 1656.44 58.9297C1656.44 54.0189 1660.54 49.9265 1665.46 49.9265C1670.39 49.9265 1674.49 54.0189 1674.49 58.9297C1674.49 63.8405 1670.39 67.9328 1665.46 67.9328ZM1651.72 45.425H1679V72.639H1651.72V45.425ZM1686.18 60.362H1690.69C1690.69 55.4512 1694.79 51.3589 1699.72 51.3589C1704.64 51.3589 1708.74 55.4512 1708.74 60.362H1713.25V33.148H1708.74C1708.74 38.0588 1704.64 42.1511 1699.72 42.1511C1694.79 42.1511 1690.69 38.0588 1690.69 33.148H1686.18V60.362ZM1699.72 4.50157C1694.79 4.50157 1690.69 8.59391 1690.69 13.5047C1690.69 18.4155 1694.79 22.5079 1699.72 22.5079C1704.64 22.5079 1708.74 18.4155 1708.74 13.5047C1708.74 8.59391 1704.84 4.50157 1699.72 4.50157ZM1686.18 27.2141H1713.46V0H1686.18V27.2141ZM1583.01 147.12H1587.52C1587.52 152.03 1591.62 156.123 1596.55 156.123C1601.47 156.123 1605.57 152.03 1605.57 147.12H1610.08V174.334H1605.57C1605.57 169.423 1601.47 165.331 1596.55 165.331C1591.62 165.331 1587.52 169.423 1587.52 174.334H1583.01V147.12ZM1587.73 195C1587.73 194.591 1587.52 194.182 1587.52 193.772C1587.52 188.861 1591.62 184.769 1596.55 184.769C1601.47 184.769 1605.57 188.861 1605.57 193.772C1605.57 194.182 1605.57 194.591 1605.37 195H1610.08V180.063H1582.81V195H1587.73ZM1617.26 195H1621.78C1621.78 190.089 1625.88 185.997 1630.8 185.997C1635.72 185.997 1639.82 190.089 1639.82 195H1644.34V167.991H1639.82C1639.82 172.901 1635.72 176.994 1630.8 176.994C1625.88 176.994 1621.78 172.901 1621.78 167.991H1617.26V195ZM1631.01 139.344C1626.08 139.344 1621.98 143.437 1621.98 148.347C1621.98 153.258 1626.08 157.35 1631.01 157.35C1635.93 157.35 1640.03 153.258 1640.03 148.347C1640.03 143.437 1635.93 139.344 1631.01 139.344ZM1617.26 162.057H1644.54V134.843H1617.26V162.057ZM1583.01 79.596H1587.52C1587.52 84.5068 1591.62 88.5992 1596.55 88.5992C1601.47 88.5992 1605.57 84.5068 1605.57 79.596H1610.08V106.81H1605.57C1605.57 101.899 1601.47 97.8069 1596.55 97.8069C1591.62 97.8069 1587.52 101.899 1587.52 106.81H1583.01V79.596ZM1596.55 135.456C1591.62 135.456 1587.52 131.364 1587.52 126.453C1587.52 121.542 1591.62 117.45 1596.55 117.45C1601.47 117.45 1605.57 121.542 1605.57 126.453C1605.57 131.364 1601.47 135.456 1596.55 135.456ZM1583.01 112.744H1610.29V139.958H1583.01V112.744ZM1617.26 127.681H1621.78C1621.78 122.77 1625.88 118.678 1630.8 118.678C1635.72 118.678 1639.82 122.77 1639.82 127.681H1644.34V100.467H1639.82C1639.82 105.378 1635.72 109.47 1630.8 109.47C1625.88 109.47 1621.78 105.378 1621.78 100.467H1617.26V127.681ZM1631.01 72.0252C1626.08 72.0252 1621.98 76.1175 1621.98 81.0283C1621.98 85.9391 1626.08 90.0315 1631.01 90.0315C1635.93 90.0315 1640.03 85.9391 1640.03 81.0283C1640.03 76.1175 1635.93 72.0252 1631.01 72.0252ZM1617.26 94.5331H1644.54V67.319H1617.26V94.5331ZM1583.01 12.277H1587.52C1587.52 17.1878 1591.62 21.2802 1596.55 21.2802C1601.47 21.2802 1605.57 17.1878 1605.57 12.277H1610.08V39.4911H1605.57C1605.57 34.5803 1601.47 30.4879 1596.55 30.4879C1591.62 30.4879 1587.52 34.5803 1587.52 39.4911H1583.01V12.277ZM1596.55 67.9328C1591.62 67.9328 1587.52 63.8405 1587.52 58.9297C1587.52 54.0189 1591.62 49.9265 1596.55 49.9265C1601.47 49.9265 1605.57 54.0189 1605.57 58.9297C1605.57 63.8405 1601.47 67.9328 1596.55 67.9328ZM1583.01 45.425H1610.29V72.639H1583.01V45.425ZM1617.26 60.362H1621.78C1621.78 55.4512 1625.88 51.3589 1630.8 51.3589C1635.72 51.3589 1639.82 55.4512 1639.82 60.362H1644.34V33.148H1639.82C1639.82 38.0588 1635.72 42.1511 1630.8 42.1511C1625.88 42.1511 1621.78 38.0588 1621.78 33.148H1617.26V60.362ZM1631.01 4.50157C1626.08 4.50157 1621.98 8.59391 1621.98 13.5047C1621.98 18.4155 1626.08 22.5079 1631.01 22.5079C1635.93 22.5079 1640.03 18.4155 1640.03 13.5047C1640.03 8.59391 1635.93 4.50157 1631.01 4.50157ZM1617.26 27.2141H1644.54V0H1617.26V27.2141ZM1514.09 147.12H1518.61C1518.61 152.03 1522.71 156.123 1527.63 156.123C1532.55 156.123 1536.66 152.03 1536.66 147.12H1541.17V174.334H1536.66C1536.66 169.423 1532.55 165.331 1527.63 165.331C1522.71 165.331 1518.61 169.423 1518.61 174.334H1514.09V147.12ZM1518.81 195C1518.81 194.591 1518.61 194.182 1518.61 193.772C1518.61 188.861 1522.71 184.769 1527.63 184.769C1532.55 184.769 1536.66 188.861 1536.66 193.772C1536.66 194.182 1536.66 194.591 1536.45 195H1541.17V180.063H1513.89V195H1518.81ZM1548.55 195H1553.06C1553.06 190.089 1557.17 185.997 1562.09 185.997C1567.01 185.997 1571.11 190.089 1571.11 195H1575.63V167.991H1571.11C1571.11 172.901 1567.01 176.994 1562.09 176.994C1557.17 176.994 1553.06 172.901 1553.06 167.991H1548.55V195ZM1562.09 139.344C1557.17 139.344 1553.06 143.437 1553.06 148.347C1553.06 153.258 1557.17 157.35 1562.09 157.35C1567.01 157.35 1571.11 153.258 1571.11 148.347C1571.11 143.437 1567.22 139.344 1562.09 139.344ZM1548.55 162.057H1575.83V134.843H1548.55V162.057ZM1514.09 79.596H1518.61C1518.61 84.5068 1522.71 88.5992 1527.63 88.5992C1532.55 88.5992 1536.66 84.5068 1536.66 79.596H1541.17V106.81H1536.66C1536.66 101.899 1532.55 97.8069 1527.63 97.8069C1522.71 97.8069 1518.61 101.899 1518.61 106.81H1514.09V79.596ZM1527.84 135.456C1522.91 135.456 1518.81 131.364 1518.81 126.453C1518.81 121.542 1522.91 117.45 1527.84 117.45C1532.76 117.45 1536.86 121.542 1536.86 126.453C1536.86 131.364 1532.76 135.456 1527.84 135.456ZM1514.09 112.744H1541.37V139.958H1514.09V112.744ZM1548.55 127.681H1553.06C1553.06 122.77 1557.17 118.678 1562.09 118.678C1567.01 118.678 1571.11 122.77 1571.11 127.681H1575.63V100.467H1571.11C1571.11 105.378 1567.01 109.47 1562.09 109.47C1557.17 109.47 1553.06 105.378 1553.06 100.467H1548.55V127.681ZM1562.09 72.0252C1557.17 72.0252 1553.06 76.1175 1553.06 81.0283C1553.06 85.9391 1557.17 90.0315 1562.09 90.0315C1567.01 90.0315 1571.11 85.9391 1571.11 81.0283C1571.11 76.1175 1567.22 72.0252 1562.09 72.0252ZM1548.55 94.5331H1575.83V67.319H1548.55V94.5331ZM1514.09 12.277H1518.61C1518.61 17.1878 1522.71 21.2802 1527.63 21.2802C1532.55 21.2802 1536.66 17.1878 1536.66 12.277H1541.17V39.4911H1536.66C1536.66 34.5803 1532.55 30.4879 1527.63 30.4879C1522.71 30.4879 1518.61 34.5803 1518.61 39.4911H1514.09V12.277ZM1527.84 67.9328C1522.91 67.9328 1518.81 63.8405 1518.81 58.9297C1518.81 54.0189 1522.91 49.9265 1527.84 49.9265C1532.76 49.9265 1536.86 54.0189 1536.86 58.9297C1536.86 63.8405 1532.76 67.9328 1527.84 67.9328ZM1514.09 45.425H1541.37V72.639H1514.09V45.425ZM1548.55 60.362H1553.06C1553.06 55.4512 1557.17 51.3589 1562.09 51.3589C1567.01 51.3589 1571.11 55.4512 1571.11 60.362H1575.63V33.148H1571.11C1571.11 38.0588 1567.01 42.1511 1562.09 42.1511C1557.17 42.1511 1553.06 38.0588 1553.06 33.148H1548.55V60.362ZM1562.09 4.50157C1557.17 4.50157 1553.06 8.59391 1553.06 13.5047C1553.06 18.4155 1557.17 22.5079 1562.09 22.5079C1567.01 22.5079 1571.11 18.4155 1571.11 13.5047C1571.11 8.59391 1567.22 4.50157 1562.09 4.50157ZM1548.55 27.2141H1575.83V0H1548.55V27.2141ZM1445.38 147.12H1449.9C1449.9 152.03 1454 156.123 1458.92 156.123C1463.84 156.123 1467.95 152.03 1467.95 147.12H1472.46V174.334H1467.95C1467.95 169.423 1463.84 165.331 1458.92 165.331C1454 165.331 1449.9 169.423 1449.9 174.334H1445.38V147.12ZM1449.9 195C1449.9 194.591 1449.9 194.182 1449.9 193.772C1449.9 188.861 1454 184.769 1458.92 184.769C1463.84 184.769 1467.95 188.861 1467.95 193.772C1467.95 194.182 1467.95 194.591 1467.95 195H1472.66V180.063H1445.38V195H1449.9ZM1479.64 195H1484.15C1484.15 190.089 1488.25 185.997 1493.17 185.997C1498.1 185.997 1502.2 190.089 1502.2 195H1506.71V167.991H1502.2C1502.2 172.901 1498.1 176.994 1493.17 176.994C1488.25 176.994 1484.15 172.901 1484.15 167.991H1479.64V195ZM1493.38 139.344C1488.46 139.344 1484.35 143.437 1484.35 148.347C1484.35 153.258 1488.46 157.35 1493.38 157.35C1498.3 157.35 1502.4 153.258 1502.4 148.347C1502.4 143.437 1498.3 139.344 1493.38 139.344ZM1479.64 162.057H1506.92V134.843H1479.64V162.057ZM1445.38 79.596H1449.9C1449.9 84.5068 1454 88.5992 1458.92 88.5992C1463.84 88.5992 1467.95 84.5068 1467.95 79.596H1472.46V106.81H1467.95C1467.95 101.899 1463.84 97.8069 1458.92 97.8069C1454 97.8069 1449.9 101.899 1449.9 106.81H1445.38V79.596ZM1458.92 135.456C1454 135.456 1449.9 131.364 1449.9 126.453C1449.9 121.542 1454 117.45 1458.92 117.45C1463.84 117.45 1467.95 121.542 1467.95 126.453C1467.95 131.364 1463.84 135.456 1458.92 135.456ZM1445.38 112.744H1472.66V139.958H1445.38V112.744ZM1479.64 127.681H1484.15C1484.15 122.77 1488.25 118.678 1493.17 118.678C1498.1 118.678 1502.2 122.77 1502.2 127.681H1506.71V100.467H1502.2C1502.2 105.378 1498.1 109.47 1493.17 109.47C1488.25 109.47 1484.15 105.378 1484.15 100.467H1479.64V127.681ZM1493.38 72.0252C1488.46 72.0252 1484.35 76.1175 1484.35 81.0283C1484.35 85.9391 1488.46 90.0315 1493.38 90.0315C1498.3 90.0315 1502.4 85.9391 1502.4 81.0283C1502.4 76.1175 1498.3 72.0252 1493.38 72.0252ZM1479.64 94.5331H1506.92V67.319H1479.64V94.5331ZM1445.38 12.277H1449.9C1449.9 17.1878 1454 21.2802 1458.92 21.2802C1463.84 21.2802 1467.95 17.1878 1467.95 12.277H1472.46V39.4911H1467.95C1467.95 34.5803 1463.84 30.4879 1458.92 30.4879C1454 30.4879 1449.9 34.5803 1449.9 39.4911H1445.38V12.277ZM1458.92 67.9328C1454 67.9328 1449.9 63.8405 1449.9 58.9297C1449.9 54.0189 1454 49.9265 1458.92 49.9265C1463.84 49.9265 1467.95 54.0189 1467.95 58.9297C1467.95 63.8405 1463.84 67.9328 1458.92 67.9328ZM1445.38 45.425H1472.66V72.639H1445.38V45.425ZM1479.64 60.362H1484.15C1484.15 55.4512 1488.25 51.3589 1493.17 51.3589C1498.1 51.3589 1502.2 55.4512 1502.2 60.362H1506.71V33.148H1502.2C1502.2 38.0588 1498.1 42.1511 1493.17 42.1511C1488.25 42.1511 1484.15 38.0588 1484.15 33.148H1479.64V60.362ZM1493.38 4.50157C1488.46 4.50157 1484.35 8.59391 1484.35 13.5047C1484.35 18.4155 1488.46 22.5079 1493.38 22.5079C1498.3 22.5079 1502.4 18.4155 1502.4 13.5047C1502.4 8.59391 1498.3 4.50157 1493.38 4.50157ZM1479.64 27.2141H1506.92V0H1479.64V27.2141ZM1376.47 147.12H1380.98C1380.98 152.03 1385.08 156.123 1390.01 156.123C1394.93 156.123 1399.03 152.03 1399.03 147.12H1403.54V174.334H1399.03C1399.03 169.423 1394.93 165.331 1390.01 165.331C1385.08 165.331 1380.98 169.423 1380.98 174.334H1376.47V147.12ZM1381.19 195C1381.19 194.591 1381.19 194.182 1381.19 193.772C1381.19 188.861 1385.29 184.769 1390.21 184.769C1395.13 184.769 1399.24 188.861 1399.24 193.772C1399.24 194.182 1399.24 194.591 1399.03 195H1403.75V180.063H1376.47V195H1381.19ZM1410.93 195H1415.44C1415.44 190.089 1419.54 185.997 1424.46 185.997C1429.39 185.997 1433.49 190.089 1433.49 195H1438V167.991H1433.49C1433.49 172.901 1429.39 176.994 1424.46 176.994C1419.54 176.994 1415.44 172.901 1415.44 167.991H1410.93V195ZM1424.46 139.344C1419.54 139.344 1415.44 143.437 1415.44 148.347C1415.44 153.258 1419.54 157.35 1424.46 157.35C1429.39 157.35 1433.49 153.258 1433.49 148.347C1433.49 143.437 1429.59 139.344 1424.46 139.344ZM1410.93 162.057H1438.21V134.843H1410.93V162.057ZM1376.47 79.596H1380.98C1380.98 84.5068 1385.08 88.5992 1390.01 88.5992C1394.93 88.5992 1399.03 84.5068 1399.03 79.596H1403.54V106.81H1399.03C1399.03 101.899 1394.93 97.8069 1390.01 97.8069C1385.08 97.8069 1380.98 101.899 1380.98 106.81H1376.47V79.596ZM1390.01 135.456C1385.08 135.456 1380.98 131.364 1380.98 126.453C1380.98 121.542 1385.08 117.45 1390.01 117.45C1394.93 117.45 1399.03 121.542 1399.03 126.453C1399.03 131.364 1395.13 135.456 1390.01 135.456ZM1376.47 112.744H1403.75V139.958H1376.47V112.744ZM1410.93 127.681H1415.44C1415.44 122.77 1419.54 118.678 1424.46 118.678C1429.39 118.678 1433.49 122.77 1433.49 127.681H1438V100.467H1433.49C1433.49 105.378 1429.39 109.47 1424.46 109.47C1419.54 109.47 1415.44 105.378 1415.44 100.467H1410.93V127.681ZM1424.46 72.0252C1419.54 72.0252 1415.44 76.1175 1415.44 81.0283C1415.44 85.9391 1419.54 90.0315 1424.46 90.0315C1429.39 90.0315 1433.49 85.9391 1433.49 81.0283C1433.49 76.1175 1429.59 72.0252 1424.46 72.0252ZM1410.93 94.5331H1438.21V67.319H1410.93V94.5331ZM1376.47 12.277H1380.98C1380.98 17.1878 1385.08 21.2802 1390.01 21.2802C1394.93 21.2802 1399.03 17.1878 1399.03 12.277H1403.54V39.4911H1399.03C1399.03 34.5803 1394.93 30.4879 1390.01 30.4879C1385.08 30.4879 1380.98 34.5803 1380.98 39.4911H1376.47V12.277ZM1390.01 67.9328C1385.08 67.9328 1380.98 63.8405 1380.98 58.9297C1380.98 54.0189 1385.08 49.9265 1390.01 49.9265C1394.93 49.9265 1399.03 54.0189 1399.03 58.9297C1399.03 63.8405 1395.13 67.9328 1390.01 67.9328ZM1376.47 45.425H1403.75V72.639H1376.47V45.425ZM1410.93 60.362H1415.44C1415.44 55.4512 1419.54 51.3589 1424.46 51.3589C1429.39 51.3589 1433.49 55.4512 1433.49 60.362H1438V33.148H1433.49C1433.49 38.0588 1429.39 42.1511 1424.46 42.1511C1419.54 42.1511 1415.44 38.0588 1415.44 33.148H1410.93V60.362ZM1424.46 4.50157C1419.54 4.50157 1415.44 8.59391 1415.44 13.5047C1415.44 18.4155 1419.54 22.5079 1424.46 22.5079C1429.39 22.5079 1433.49 18.4155 1433.49 13.5047C1433.49 8.59391 1429.59 4.50157 1424.46 4.50157ZM1410.93 27.2141H1438.21V0H1410.93V27.2141ZM1307.55 147.12H1312.07C1312.07 152.03 1316.17 156.123 1321.09 156.123C1326.01 156.123 1330.11 152.03 1330.11 147.12H1334.63V174.334H1330.11C1330.11 169.423 1326.01 165.331 1321.09 165.331C1316.17 165.331 1312.07 169.423 1312.07 174.334H1307.55V147.12ZM1312.27 195C1312.27 194.591 1312.07 194.182 1312.07 193.772C1312.07 188.861 1316.17 184.769 1321.09 184.769C1326.01 184.769 1330.11 188.861 1330.11 193.772C1330.11 194.182 1330.11 194.591 1329.91 195H1334.63V180.063H1307.35V195H1312.27ZM1342.01 195H1346.52C1346.52 190.089 1350.63 185.997 1355.55 185.997C1360.47 185.997 1364.57 190.089 1364.57 195H1369.08V167.991H1364.57C1364.57 172.901 1360.47 176.994 1355.55 176.994C1350.63 176.994 1346.52 172.901 1346.52 167.991H1342.01V195ZM1355.75 139.344C1350.83 139.344 1346.73 143.437 1346.73 148.347C1346.73 153.258 1350.83 157.35 1355.75 157.35C1360.68 157.35 1364.78 153.258 1364.78 148.347C1364.78 143.437 1360.68 139.344 1355.75 139.344ZM1342.01 162.057H1369.29V134.843H1342.01V162.057ZM1307.55 79.596H1312.07C1312.07 84.5068 1316.17 88.5992 1321.09 88.5992C1326.01 88.5992 1330.11 84.5068 1330.11 79.596H1334.63V106.81H1330.11C1330.11 101.899 1326.01 97.8069 1321.09 97.8069C1316.17 97.8069 1312.07 101.899 1312.07 106.81H1307.55V79.596ZM1321.29 135.456C1316.37 135.456 1312.27 131.364 1312.27 126.453C1312.27 121.542 1316.37 117.45 1321.29 117.45C1326.22 117.45 1330.32 121.542 1330.32 126.453C1330.32 131.364 1326.22 135.456 1321.29 135.456ZM1307.55 112.744H1334.83V139.958H1307.55V112.744ZM1342.01 127.681H1346.52C1346.52 122.77 1350.63 118.678 1355.55 118.678C1360.47 118.678 1364.57 122.77 1364.57 127.681H1369.08V100.467H1364.57C1364.57 105.378 1360.47 109.47 1355.55 109.47C1350.63 109.47 1346.52 105.378 1346.52 100.467H1342.01V127.681ZM1355.75 72.0252C1350.83 72.0252 1346.73 76.1175 1346.73 81.0283C1346.73 85.9391 1350.83 90.0315 1355.75 90.0315C1360.68 90.0315 1364.78 85.9391 1364.78 81.0283C1364.78 76.1175 1360.68 72.0252 1355.75 72.0252ZM1342.01 94.5331H1369.29V67.319H1342.01V94.5331ZM1307.55 12.277H1312.07C1312.07 17.1878 1316.17 21.2802 1321.09 21.2802C1326.01 21.2802 1330.11 17.1878 1330.11 12.277H1334.63V39.4911H1330.11C1330.11 34.5803 1326.01 30.4879 1321.09 30.4879C1316.17 30.4879 1312.07 34.5803 1312.07 39.4911H1307.55V12.277ZM1321.29 67.9328C1316.37 67.9328 1312.27 63.8405 1312.27 58.9297C1312.27 54.0189 1316.37 49.9265 1321.29 49.9265C1326.22 49.9265 1330.32 54.0189 1330.32 58.9297C1330.32 63.8405 1326.22 67.9328 1321.29 67.9328ZM1307.55 45.425H1334.83V72.639H1307.55V45.425ZM1342.01 60.362H1346.52C1346.52 55.4512 1350.63 51.3589 1355.55 51.3589C1360.47 51.3589 1364.57 55.4512 1364.57 60.362H1369.08V33.148H1364.57C1364.57 38.0588 1360.47 42.1511 1355.55 42.1511C1350.63 42.1511 1346.52 38.0588 1346.52 33.148H1342.01V60.362ZM1355.75 4.50157C1350.83 4.50157 1346.73 8.59391 1346.73 13.5047C1346.73 18.4155 1350.83 22.5079 1355.75 22.5079C1360.68 22.5079 1364.78 18.4155 1364.78 13.5047C1364.78 8.59391 1360.68 4.50157 1355.75 4.50157ZM1342.01 27.2141H1369.29V0H1342.01V27.2141ZM1238.84 147.12H1243.35C1243.35 152.03 1247.46 156.123 1252.38 156.123C1257.3 156.123 1261.4 152.03 1261.4 147.12H1265.92V174.334H1261.4C1261.4 169.423 1257.3 165.331 1252.38 165.331C1247.46 165.331 1243.35 169.423 1243.35 174.334H1238.84V147.12ZM1243.56 195C1243.56 194.591 1243.35 194.182 1243.35 193.772C1243.35 188.861 1247.46 184.769 1252.38 184.769C1257.3 184.769 1261.4 188.861 1261.4 193.772C1261.4 194.182 1261.4 194.591 1261.2 195H1265.92V180.063H1238.84V195H1243.56ZM1273.3 195H1277.81C1277.81 190.089 1281.91 185.997 1286.84 185.997C1291.76 185.997 1295.86 190.089 1295.86 195H1300.37V167.991H1295.86C1295.86 172.901 1291.76 176.994 1286.84 176.994C1281.91 176.994 1277.81 172.901 1277.81 167.991H1273.3V195ZM1286.84 139.344C1281.91 139.344 1277.81 143.437 1277.81 148.347C1277.81 153.258 1281.91 157.35 1286.84 157.35C1291.76 157.35 1295.86 153.258 1295.86 148.347C1295.86 143.437 1291.76 139.344 1286.84 139.344ZM1273.3 162.057H1300.58V134.843H1273.3V162.057ZM1238.84 79.596H1243.35C1243.35 84.5068 1247.46 88.5992 1252.38 88.5992C1257.3 88.5992 1261.4 84.5068 1261.4 79.596H1265.92V106.81H1261.4C1261.4 101.899 1257.3 97.8069 1252.38 97.8069C1247.46 97.8069 1243.35 101.899 1243.35 106.81H1238.84V79.596ZM1252.38 135.456C1247.46 135.456 1243.35 131.364 1243.35 126.453C1243.35 121.542 1247.46 117.45 1252.38 117.45C1257.3 117.45 1261.4 121.542 1261.4 126.453C1261.4 131.364 1257.51 135.456 1252.38 135.456ZM1238.84 112.744H1266.12V139.958H1238.84V112.744ZM1273.3 127.681H1277.81C1277.81 122.77 1281.91 118.678 1286.84 118.678C1291.76 118.678 1295.86 122.77 1295.86 127.681H1300.37V100.467H1295.86C1295.86 105.378 1291.76 109.47 1286.84 109.47C1281.91 109.47 1277.81 105.378 1277.81 100.467H1273.3V127.681ZM1286.84 72.0252C1281.91 72.0252 1277.81 76.1175 1277.81 81.0283C1277.81 85.9391 1281.91 90.0315 1286.84 90.0315C1291.76 90.0315 1295.86 85.9391 1295.86 81.0283C1295.86 76.1175 1291.76 72.0252 1286.84 72.0252ZM1273.3 94.5331H1300.58V67.319H1273.3V94.5331ZM1238.84 12.277H1243.35C1243.35 17.1878 1247.46 21.2802 1252.38 21.2802C1257.3 21.2802 1261.4 17.1878 1261.4 12.277H1265.92V39.4911H1261.4C1261.4 34.5803 1257.3 30.4879 1252.38 30.4879C1247.46 30.4879 1243.35 34.5803 1243.35 39.4911H1238.84V12.277ZM1252.38 67.9328C1247.46 67.9328 1243.35 63.8405 1243.35 58.9297C1243.35 54.0189 1247.46 49.9265 1252.38 49.9265C1257.3 49.9265 1261.4 54.0189 1261.4 58.9297C1261.4 63.8405 1257.51 67.9328 1252.38 67.9328ZM1238.84 45.425H1266.12V72.639H1238.84V45.425ZM1273.3 60.362H1277.81C1277.81 55.4512 1281.91 51.3589 1286.84 51.3589C1291.76 51.3589 1295.86 55.4512 1295.86 60.362H1300.37V33.148H1295.86C1295.86 38.0588 1291.76 42.1511 1286.84 42.1511C1281.91 42.1511 1277.81 38.0588 1277.81 33.148H1273.3V60.362ZM1286.84 4.50157C1281.91 4.50157 1277.81 8.59391 1277.81 13.5047C1277.81 18.4155 1281.91 22.5079 1286.84 22.5079C1291.76 22.5079 1295.86 18.4155 1295.86 13.5047C1295.86 8.59391 1291.76 4.50157 1286.84 4.50157ZM1273.3 27.2141H1300.58V0H1273.3V27.2141ZM1169.93 147.12H1174.44C1174.44 152.03 1178.54 156.123 1183.46 156.123C1188.39 156.123 1192.49 152.03 1192.49 147.12H1197V174.334H1192.49C1192.49 169.423 1188.39 165.331 1183.46 165.331C1178.54 165.331 1174.44 169.423 1174.44 174.334H1169.93V147.12ZM1174.64 195C1174.64 194.591 1174.64 194.182 1174.64 193.772C1174.64 188.861 1178.75 184.769 1183.67 184.769C1188.59 184.769 1192.69 188.861 1192.69 193.772C1192.69 194.182 1192.69 194.591 1192.69 195H1197.41V180.063H1170.13V195H1174.64ZM1204.38 195H1208.9C1208.9 190.089 1213 185.997 1217.92 185.997C1222.84 185.997 1226.95 190.089 1226.95 195H1231.46V167.991H1226.95C1226.95 172.901 1222.84 176.994 1217.92 176.994C1213 176.994 1208.9 172.901 1208.9 167.991H1204.38V195ZM1218.13 139.344C1213.2 139.344 1209.1 143.437 1209.1 148.347C1209.1 153.258 1213.2 157.35 1218.13 157.35C1223.05 157.35 1227.15 153.258 1227.15 148.347C1227.15 143.437 1223.05 139.344 1218.13 139.344ZM1204.38 162.057H1231.66V134.843H1204.38V162.057ZM1169.93 79.596H1174.44C1174.44 84.5068 1178.54 88.5992 1183.46 88.5992C1188.39 88.5992 1192.49 84.5068 1192.49 79.596H1197V106.81H1192.49C1192.49 101.899 1188.39 97.8069 1183.46 97.8069C1178.54 97.8069 1174.44 101.899 1174.44 106.81H1169.93V79.596ZM1183.67 135.456C1178.75 135.456 1174.64 131.364 1174.64 126.453C1174.64 121.542 1178.75 117.45 1183.67 117.45C1188.59 117.45 1192.69 121.542 1192.69 126.453C1192.69 131.364 1188.59 135.456 1183.67 135.456ZM1169.93 112.744H1197.21V139.958H1169.93V112.744ZM1204.38 127.681H1208.9C1208.9 122.77 1213 118.678 1217.92 118.678C1222.84 118.678 1226.95 122.77 1226.95 127.681H1231.46V100.467H1226.95C1226.95 105.378 1222.84 109.47 1217.92 109.47C1213 109.47 1208.9 105.378 1208.9 100.467H1204.38V127.681ZM1218.13 72.0252C1213.2 72.0252 1209.1 76.1175 1209.1 81.0283C1209.1 85.9391 1213.2 90.0315 1218.13 90.0315C1223.05 90.0315 1227.15 85.9391 1227.15 81.0283C1227.15 76.1175 1223.05 72.0252 1218.13 72.0252ZM1204.38 94.5331H1231.66V67.319H1204.38V94.5331ZM1169.93 12.277H1174.44C1174.44 17.1878 1178.54 21.2802 1183.46 21.2802C1188.39 21.2802 1192.49 17.1878 1192.49 12.277H1197V39.4911H1192.49C1192.49 34.5803 1188.39 30.4879 1183.46 30.4879C1178.54 30.4879 1174.44 34.5803 1174.44 39.4911H1169.93V12.277ZM1183.67 67.9328C1178.75 67.9328 1174.64 63.8405 1174.64 58.9297C1174.64 54.0189 1178.75 49.9265 1183.67 49.9265C1188.59 49.9265 1192.69 54.0189 1192.69 58.9297C1192.69 63.8405 1188.59 67.9328 1183.67 67.9328ZM1169.93 45.425H1197.21V72.639H1169.93V45.425ZM1204.38 60.362H1208.9C1208.9 55.4512 1213 51.3589 1217.92 51.3589C1222.84 51.3589 1226.95 55.4512 1226.95 60.362H1231.46V33.148H1226.95C1226.95 38.0588 1222.84 42.1511 1217.92 42.1511C1213 42.1511 1208.9 38.0588 1208.9 33.148H1204.38V60.362ZM1218.13 4.50157C1213.2 4.50157 1209.1 8.59391 1209.1 13.5047C1209.1 18.4155 1213.2 22.5079 1218.13 22.5079C1223.05 22.5079 1227.15 18.4155 1227.15 13.5047C1227.15 8.59391 1223.05 4.50157 1218.13 4.50157ZM1204.38 27.2141H1231.66V0H1204.38V27.2141ZM1101.22 147.12H1105.73C1105.73 152.03 1109.83 156.123 1114.75 156.123C1119.68 156.123 1123.78 152.03 1123.78 147.12H1128.29V174.334H1123.78C1123.78 169.423 1119.68 165.331 1114.75 165.331C1109.83 165.331 1105.73 169.423 1105.73 174.334H1101.22V147.12ZM1105.73 195C1105.73 194.591 1105.73 194.182 1105.73 193.772C1105.73 188.861 1109.83 184.769 1114.75 184.769C1119.68 184.769 1123.78 188.861 1123.78 193.772C1123.78 194.182 1123.78 194.591 1123.57 195H1128.29V180.063H1101.01V195H1105.73ZM1135.67 195H1140.19C1140.19 190.089 1144.29 185.997 1149.21 185.997C1154.13 185.997 1158.24 190.089 1158.24 195H1162.75V167.991H1158.24C1158.24 172.901 1154.13 176.994 1149.21 176.994C1144.29 176.994 1140.19 172.901 1140.19 167.991H1135.67V195ZM1149.21 139.344C1144.29 139.344 1140.19 143.437 1140.19 148.347C1140.19 153.258 1144.29 157.35 1149.21 157.35C1154.13 157.35 1158.24 153.258 1158.24 148.347C1158.24 143.437 1154.13 139.344 1149.21 139.344ZM1135.67 162.057H1162.95V134.843H1135.67V162.057ZM1101.22 79.596H1105.73C1105.73 84.5068 1109.83 88.5992 1114.75 88.5992C1119.68 88.5992 1123.78 84.5068 1123.78 79.596H1128.29V106.81H1123.78C1123.78 101.899 1119.68 97.8069 1114.75 97.8069C1109.83 97.8069 1105.73 101.899 1105.73 106.81H1101.22V79.596ZM1114.75 135.456C1109.83 135.456 1105.73 131.364 1105.73 126.453C1105.73 121.542 1109.83 117.45 1114.75 117.45C1119.68 117.45 1123.78 121.542 1123.78 126.453C1123.78 131.364 1119.88 135.456 1114.75 135.456ZM1101.22 112.744H1128.49V139.958H1101.22V112.744ZM1135.67 127.681H1140.19C1140.19 122.77 1144.29 118.678 1149.21 118.678C1154.13 118.678 1158.24 122.77 1158.24 127.681H1162.75V100.467H1158.24C1158.24 105.378 1154.13 109.47 1149.21 109.47C1144.29 109.47 1140.19 105.378 1140.19 100.467H1135.67V127.681ZM1149.21 72.0252C1144.29 72.0252 1140.19 76.1175 1140.19 81.0283C1140.19 85.9391 1144.29 90.0315 1149.21 90.0315C1154.13 90.0315 1158.24 85.9391 1158.24 81.0283C1158.24 76.1175 1154.13 72.0252 1149.21 72.0252ZM1135.67 94.5331H1162.95V67.319H1135.67V94.5331ZM1101.22 12.277H1105.73C1105.73 17.1878 1109.83 21.2802 1114.75 21.2802C1119.68 21.2802 1123.78 17.1878 1123.78 12.277H1128.29V39.4911H1123.78C1123.78 34.5803 1119.68 30.4879 1114.75 30.4879C1109.83 30.4879 1105.73 34.5803 1105.73 39.4911H1101.22V12.277ZM1114.75 67.9328C1109.83 67.9328 1105.73 63.8405 1105.73 58.9297C1105.73 54.0189 1109.83 49.9265 1114.75 49.9265C1119.68 49.9265 1123.78 54.0189 1123.78 58.9297C1123.78 63.8405 1119.88 67.9328 1114.75 67.9328ZM1101.22 45.425H1128.49V72.639H1101.22V45.425ZM1135.67 60.362H1140.19C1140.19 55.4512 1144.29 51.3589 1149.21 51.3589C1154.13 51.3589 1158.24 55.4512 1158.24 60.362H1162.75V33.148H1158.24C1158.24 38.0588 1154.13 42.1511 1149.21 42.1511C1144.29 42.1511 1140.19 38.0588 1140.19 33.148H1135.67V60.362ZM1149.21 4.50157C1144.29 4.50157 1140.19 8.59391 1140.19 13.5047C1140.19 18.4155 1144.29 22.5079 1149.21 22.5079C1154.13 22.5079 1158.24 18.4155 1158.24 13.5047C1158.24 8.59391 1154.13 4.50157 1149.21 4.50157ZM1135.67 27.2141H1162.95V0H1135.67V27.2141ZM1032.3 147.12H1036.81C1036.81 152.03 1040.91 156.123 1045.84 156.123C1050.76 156.123 1054.86 152.03 1054.86 147.12H1059.37V174.334H1054.86C1054.86 169.423 1050.76 165.331 1045.84 165.331C1040.91 165.331 1036.81 169.423 1036.81 174.334H1032.3V147.12ZM1037.02 195C1037.02 194.591 1036.81 194.182 1036.81 193.772C1036.81 188.861 1040.91 184.769 1045.84 184.769C1050.76 184.769 1054.86 188.861 1054.86 193.772C1054.86 194.182 1054.86 194.591 1054.66 195H1059.37V180.063H1032.09V195H1037.02ZM1066.76 195H1071.27C1071.27 190.089 1075.37 185.997 1080.29 185.997C1085.22 185.997 1089.32 190.089 1089.32 195H1093.83V167.991H1089.32C1089.32 172.901 1085.22 176.994 1080.29 176.994C1075.37 176.994 1071.27 172.901 1071.27 167.991H1066.76V195ZM1080.29 139.344C1075.37 139.344 1071.27 143.437 1071.27 148.347C1071.27 153.258 1075.37 157.35 1080.29 157.35C1085.22 157.35 1089.32 153.258 1089.32 148.347C1089.52 143.437 1085.42 139.344 1080.29 139.344ZM1066.76 162.057H1094.04V134.843H1066.76V162.057ZM1032.3 79.596H1036.81C1036.81 84.5068 1040.91 88.5992 1045.84 88.5992C1050.76 88.5992 1054.86 84.5068 1054.86 79.596H1059.37V106.81H1054.86C1054.86 101.899 1050.76 97.8069 1045.84 97.8069C1040.91 97.8069 1036.81 101.899 1036.81 106.81H1032.3V79.596ZM1046.04 135.456C1041.12 135.456 1037.02 131.364 1037.02 126.453C1037.02 121.542 1041.12 117.45 1046.04 117.45C1050.96 117.45 1055.07 121.542 1055.07 126.453C1055.07 131.364 1050.96 135.456 1046.04 135.456ZM1032.3 112.744H1059.58V139.958H1032.3V112.744ZM1066.76 127.681H1071.27C1071.27 122.77 1075.37 118.678 1080.29 118.678C1085.22 118.678 1089.32 122.77 1089.32 127.681H1093.83V100.467H1089.32C1089.32 105.378 1085.22 109.47 1080.29 109.47C1075.37 109.47 1071.27 105.378 1071.27 100.467H1066.76V127.681ZM1080.29 72.0252C1075.37 72.0252 1071.27 76.1175 1071.27 81.0283C1071.27 85.9391 1075.37 90.0315 1080.29 90.0315C1085.22 90.0315 1089.32 85.9391 1089.32 81.0283C1089.52 76.1175 1085.42 72.0252 1080.29 72.0252ZM1066.76 94.5331H1094.04V67.319H1066.76V94.5331ZM1032.3 12.277H1036.81C1036.81 17.1878 1040.91 21.2802 1045.84 21.2802C1050.76 21.2802 1054.86 17.1878 1054.86 12.277H1059.37V39.4911H1054.86C1054.86 34.5803 1050.76 30.4879 1045.84 30.4879C1040.91 30.4879 1036.81 34.5803 1036.81 39.4911H1032.3V12.277ZM1046.04 67.9328C1041.12 67.9328 1037.02 63.8405 1037.02 58.9297C1037.02 54.0189 1041.12 49.9265 1046.04 49.9265C1050.96 49.9265 1055.07 54.0189 1055.07 58.9297C1055.07 63.8405 1050.96 67.9328 1046.04 67.9328ZM1032.3 45.425H1059.58V72.639H1032.3V45.425ZM1066.76 60.362H1071.27C1071.27 55.4512 1075.37 51.3589 1080.29 51.3589C1085.22 51.3589 1089.32 55.4512 1089.32 60.362H1093.83V33.148H1089.32C1089.32 38.0588 1085.22 42.1511 1080.29 42.1511C1075.37 42.1511 1071.27 38.0588 1071.27 33.148H1066.76V60.362ZM1080.29 4.50157C1075.37 4.50157 1071.27 8.59391 1071.27 13.5047C1071.27 18.4155 1075.37 22.5079 1080.29 22.5079C1085.22 22.5079 1089.32 18.4155 1089.32 13.5047C1089.52 8.59391 1085.42 4.50157 1080.29 4.50157ZM1066.76 27.2141H1094.04V0H1066.76V27.2141ZM963.589 147.12H968.102C968.102 152.03 972.204 156.123 977.126 156.123C982.049 156.123 986.151 152.03 986.151 147.12H990.663V174.334H986.151C986.151 169.423 982.049 165.331 977.126 165.331C972.204 165.331 968.102 169.423 968.102 174.334H963.589V147.12ZM968.307 195C968.307 194.591 968.102 194.182 968.102 193.772C968.102 188.861 972.204 184.769 977.126 184.769C982.049 184.769 986.151 188.861 986.151 193.772C986.151 194.182 986.151 194.591 986.151 195H990.869V180.063H963.589V195H968.307ZM997.842 195H1002.35C1002.35 190.089 1006.46 185.997 1011.38 185.997C1016.3 185.997 1020.4 190.089 1020.4 195H1024.92V167.991H1020.4C1020.4 172.901 1016.3 176.994 1011.38 176.994C1006.46 176.994 1002.35 172.901 1002.35 167.991H997.842V195ZM1011.58 139.344C1006.66 139.344 1002.56 143.437 1002.56 148.347C1002.56 153.258 1006.66 157.35 1011.58 157.35C1016.51 157.35 1020.61 153.258 1020.61 148.347C1020.61 143.437 1016.51 139.344 1011.58 139.344ZM997.842 162.057H1025.12V134.843H997.842V162.057ZM963.589 79.596H968.102C968.102 84.5068 972.204 88.5992 977.126 88.5992C982.049 88.5992 986.151 84.5068 986.151 79.596H990.663V106.81H986.151C986.151 101.899 982.049 97.8069 977.126 97.8069C972.204 97.8069 968.102 101.899 968.102 106.81H963.589V79.596ZM977.126 135.456C972.204 135.456 968.102 131.364 968.102 126.453C968.102 121.542 972.204 117.45 977.126 117.45C982.049 117.45 986.151 121.542 986.151 126.453C986.151 131.364 982.254 135.456 977.126 135.456ZM963.589 112.744H990.869V139.958H963.589V112.744ZM997.842 127.681H1002.35C1002.35 122.77 1006.46 118.678 1011.38 118.678C1016.3 118.678 1020.4 122.77 1020.4 127.681H1024.92V100.467H1020.4C1020.4 105.378 1016.3 109.47 1011.38 109.47C1006.46 109.47 1002.35 105.378 1002.35 100.467H997.842V127.681ZM1011.58 72.0252C1006.66 72.0252 1002.56 76.1175 1002.56 81.0283C1002.56 85.9391 1006.66 90.0315 1011.58 90.0315C1016.51 90.0315 1020.61 85.9391 1020.61 81.0283C1020.61 76.1175 1016.51 72.0252 1011.58 72.0252ZM997.842 94.5331H1025.12V67.319H997.842V94.5331ZM963.589 12.277H968.102C968.102 17.1878 972.204 21.2802 977.126 21.2802C982.049 21.2802 986.151 17.1878 986.151 12.277H990.663V39.4911H986.151C986.151 34.5803 982.049 30.4879 977.126 30.4879C972.204 30.4879 968.102 34.5803 968.102 39.4911H963.589V12.277ZM977.126 67.9328C972.204 67.9328 968.102 63.8405 968.102 58.9297C968.102 54.0189 972.204 49.9265 977.126 49.9265C982.049 49.9265 986.151 54.0189 986.151 58.9297C986.151 63.8405 982.254 67.9328 977.126 67.9328ZM963.589 45.425H990.869V72.639H963.589V45.425ZM997.842 60.362H1002.35C1002.35 55.4512 1006.46 51.3589 1011.38 51.3589C1016.3 51.3589 1020.4 55.4512 1020.4 60.362H1024.92V33.148H1020.4C1020.4 38.0588 1016.3 42.1511 1011.38 42.1511C1006.46 42.1511 1002.35 38.0588 1002.35 33.148H997.842V60.362ZM1011.58 4.50157C1006.66 4.50157 1002.56 8.59391 1002.56 13.5047C1002.56 18.4155 1006.66 22.5079 1011.58 22.5079C1016.51 22.5079 1020.61 18.4155 1020.61 13.5047C1020.61 8.59391 1016.51 4.50157 1011.58 4.50157ZM997.842 27.2141H1025.12V0H997.842V27.2141ZM894.674 147.12H899.186C899.186 152.03 903.288 156.123 908.211 156.123C913.133 156.123 917.235 152.03 917.235 147.12H921.748V174.334H917.235C917.235 169.423 913.133 165.331 908.211 165.331C903.288 165.331 899.186 169.423 899.186 174.334H894.674V147.12ZM899.391 195C899.391 194.591 899.391 194.182 899.391 193.772C899.391 188.861 903.493 184.769 908.416 184.769C913.338 184.769 917.44 188.861 917.44 193.772C917.44 194.182 917.44 194.591 917.44 195H922.158V180.063H894.879V195H899.391ZM929.132 195H933.644C933.644 190.089 937.746 185.997 942.669 185.997C947.591 185.997 951.693 190.089 951.693 195H956.206V167.991H951.693C951.693 172.901 947.591 176.994 942.669 176.994C937.746 176.994 933.644 172.901 933.644 167.991H929.132V195ZM942.669 139.344C937.746 139.344 933.644 143.437 933.644 148.347C933.644 153.258 937.746 157.35 942.669 157.35C947.591 157.35 951.693 153.258 951.693 148.347C951.693 143.437 947.796 139.344 942.669 139.344ZM929.132 162.057H956.411V134.843H929.132V162.057ZM894.674 79.596H899.186C899.186 84.5068 903.288 88.5992 908.211 88.5992C913.133 88.5992 917.235 84.5068 917.235 79.596H921.748V106.81H917.235C917.235 101.899 913.133 97.8069 908.211 97.8069C903.288 97.8069 899.186 101.899 899.186 106.81H894.674V79.596ZM908.416 135.456C903.493 135.456 899.391 131.364 899.391 126.453C899.391 121.542 903.493 117.45 908.416 117.45C913.338 117.45 917.44 121.542 917.44 126.453C917.44 131.364 913.338 135.456 908.416 135.456ZM894.674 112.744H921.953V139.958H894.674V112.744ZM929.132 127.681H933.644C933.644 122.77 937.746 118.678 942.669 118.678C947.591 118.678 951.693 122.77 951.693 127.681H956.206V100.467H951.693C951.693 105.378 947.591 109.47 942.669 109.47C937.746 109.47 933.644 105.378 933.644 100.467H929.132V127.681ZM942.669 72.0252C937.746 72.0252 933.644 76.1175 933.644 81.0283C933.644 85.9391 937.746 90.0315 942.669 90.0315C947.591 90.0315 951.693 85.9391 951.693 81.0283C951.693 76.1175 947.796 72.0252 942.669 72.0252ZM929.132 94.5331H956.411V67.319H929.132V94.5331ZM894.674 12.277H899.186C899.186 17.1878 903.288 21.2802 908.211 21.2802C913.133 21.2802 917.235 17.1878 917.235 12.277H921.748V39.4911H917.235C917.235 34.5803 913.133 30.4879 908.211 30.4879C903.288 30.4879 899.186 34.5803 899.186 39.4911H894.674V12.277ZM908.416 67.9328C903.493 67.9328 899.391 63.8405 899.391 58.9297C899.391 54.0189 903.493 49.9265 908.416 49.9265C913.338 49.9265 917.44 54.0189 917.44 58.9297C917.44 63.8405 913.338 67.9328 908.416 67.9328ZM894.674 45.425H921.953V72.639H894.674V45.425ZM929.132 60.362H933.644C933.644 55.4512 937.746 51.3589 942.669 51.3589C947.591 51.3589 951.693 55.4512 951.693 60.362H956.206V33.148H951.693C951.693 38.0588 947.591 42.1511 942.669 42.1511C937.746 42.1511 933.644 38.0588 933.644 33.148H929.132V60.362ZM942.669 4.50157C937.746 4.50157 933.644 8.59391 933.644 13.5047C933.644 18.4155 937.746 22.5079 942.669 22.5079C947.591 22.5079 951.693 18.4155 951.693 13.5047C951.693 8.59391 947.796 4.50157 942.669 4.50157ZM929.132 27.2141H956.411V0H929.132V27.2141ZM825.963 147.12H830.475C830.475 152.03 834.578 156.123 839.5 156.123C844.423 156.123 848.525 152.03 848.525 147.12H853.037V174.334H848.525C848.525 169.423 844.423 165.331 839.5 165.331C834.578 165.331 830.475 169.423 830.475 174.334H825.963V147.12ZM830.681 195C830.475 194.591 830.475 194.182 830.475 193.772C830.475 188.861 834.578 184.769 839.5 184.769C844.423 184.769 848.525 188.861 848.525 193.772C848.525 194.182 848.525 194.591 848.32 195H853.037V180.063H825.758V195H830.681ZM860.216 195H864.728C864.728 190.089 868.83 185.997 873.753 185.997C878.675 185.997 882.778 190.089 882.778 195H887.29V167.991H882.778C882.778 172.901 878.675 176.994 873.753 176.994C868.83 176.994 864.728 172.901 864.728 167.991H860.216V195ZM873.958 139.344C869.035 139.344 864.933 143.437 864.933 148.347C864.933 153.258 869.035 157.35 873.958 157.35C878.881 157.35 882.983 153.258 882.983 148.347C882.983 143.437 878.881 139.344 873.958 139.344ZM860.216 162.057H887.495V134.843H860.216V162.057ZM825.963 79.596H830.475C830.475 84.5068 834.578 88.5992 839.5 88.5992C844.423 88.5992 848.525 84.5068 848.525 79.596H853.037V106.81H848.525C848.525 101.899 844.423 97.8069 839.5 97.8069C834.578 97.8069 830.475 101.899 830.475 106.81H825.963V79.596ZM839.5 135.456C834.578 135.456 830.475 131.364 830.475 126.453C830.475 121.542 834.578 117.45 839.5 117.45C844.423 117.45 848.525 121.542 848.525 126.453C848.525 131.364 844.423 135.456 839.5 135.456ZM825.963 112.744H853.242V139.958H825.963V112.744ZM860.216 127.681H864.728C864.728 122.77 868.83 118.678 873.753 118.678C878.675 118.678 882.778 122.77 882.778 127.681H887.29V100.467H882.778C882.778 105.378 878.675 109.47 873.753 109.47C868.83 109.47 864.728 105.378 864.728 100.467H860.216V127.681ZM873.958 72.0252C869.035 72.0252 864.933 76.1175 864.933 81.0283C864.933 85.9391 869.035 90.0315 873.958 90.0315C878.881 90.0315 882.983 85.9391 882.983 81.0283C882.983 76.1175 878.881 72.0252 873.958 72.0252ZM860.216 94.5331H887.495V67.319H860.216V94.5331ZM825.963 12.277H830.475C830.475 17.1878 834.578 21.2802 839.5 21.2802C844.423 21.2802 848.525 17.1878 848.525 12.277H853.037V39.4911H848.525C848.525 34.5803 844.423 30.4879 839.5 30.4879C834.578 30.4879 830.475 34.5803 830.475 39.4911H825.963V12.277ZM839.5 67.9328C834.578 67.9328 830.475 63.8405 830.475 58.9297C830.475 54.0189 834.578 49.9265 839.5 49.9265C844.423 49.9265 848.525 54.0189 848.525 58.9297C848.525 63.8405 844.423 67.9328 839.5 67.9328ZM825.963 45.425H853.242V72.639H825.963V45.425ZM860.216 60.362H864.728C864.728 55.4512 868.83 51.3589 873.753 51.3589C878.675 51.3589 882.778 55.4512 882.778 60.362H887.29V33.148H882.778C882.778 38.0588 878.675 42.1511 873.753 42.1511C868.83 42.1511 864.728 38.0588 864.728 33.148H860.216V60.362ZM873.958 4.50157C869.035 4.50157 864.933 8.59391 864.933 13.5047C864.933 18.4155 869.035 22.5079 873.958 22.5079C878.881 22.5079 882.983 18.4155 882.983 13.5047C882.983 8.59391 878.881 4.50157 873.958 4.50157ZM860.216 27.2141H887.495V0H860.216V27.2141ZM757.047 147.12H761.56C761.56 152.03 765.662 156.123 770.584 156.123C775.507 156.123 779.609 152.03 779.609 147.12H784.121V174.334H779.609C779.609 169.423 775.507 165.331 770.584 165.331C765.662 165.331 761.56 169.423 761.56 174.334H757.047V147.12ZM761.765 195C761.765 194.591 761.56 194.182 761.56 193.772C761.56 188.861 765.662 184.769 770.584 184.769C775.507 184.769 779.609 188.861 779.609 193.772C779.609 194.182 779.609 194.591 779.404 195H784.121V180.063H756.842V195H761.765ZM791.505 195H796.018C796.018 190.089 800.12 185.997 805.042 185.997C809.965 185.997 814.067 190.089 814.067 195H818.579V167.991H814.067C814.067 172.901 809.965 176.994 805.042 176.994C800.12 176.994 796.018 172.901 796.018 167.991H791.505V195ZM805.042 139.344C800.12 139.344 796.018 143.437 796.018 148.347C796.018 153.258 800.12 157.35 805.042 157.35C809.965 157.35 814.067 153.258 814.067 148.347C814.067 143.437 810.17 139.344 805.042 139.344ZM791.505 162.057H818.784V134.843H791.505V162.057ZM757.047 79.596H761.56C761.56 84.5068 765.662 88.5992 770.584 88.5992C775.507 88.5992 779.609 84.5068 779.609 79.596H784.121V106.81H779.609C779.609 101.899 775.507 97.8069 770.584 97.8069C765.662 97.8069 761.56 101.899 761.56 106.81H757.047V79.596ZM770.789 135.456C765.867 135.456 761.765 131.364 761.765 126.453C761.765 121.542 765.867 117.45 770.789 117.45C775.712 117.45 779.814 121.542 779.814 126.453C779.814 131.364 775.712 135.456 770.789 135.456ZM757.047 112.744H784.326V139.958H757.047V112.744ZM791.505 127.681H796.018C796.018 122.77 800.12 118.678 805.042 118.678C809.965 118.678 814.067 122.77 814.067 127.681H818.579V100.467H814.067C814.067 105.378 809.965 109.47 805.042 109.47C800.12 109.47 796.018 105.378 796.018 100.467H791.505V127.681ZM805.042 72.0252C800.12 72.0252 796.018 76.1175 796.018 81.0283C796.018 85.9391 800.12 90.0315 805.042 90.0315C809.965 90.0315 814.067 85.9391 814.067 81.0283C814.067 76.1175 810.17 72.0252 805.042 72.0252ZM791.505 94.5331H818.784V67.319H791.505V94.5331ZM757.047 12.277H761.56C761.56 17.1878 765.662 21.2802 770.584 21.2802C775.507 21.2802 779.609 17.1878 779.609 12.277H784.121V39.4911H779.609C779.609 34.5803 775.507 30.4879 770.584 30.4879C765.662 30.4879 761.56 34.5803 761.56 39.4911H757.047V12.277ZM770.789 67.9328C765.867 67.9328 761.765 63.8405 761.765 58.9297C761.765 54.0189 765.867 49.9265 770.789 49.9265C775.712 49.9265 779.814 54.0189 779.814 58.9297C779.814 63.8405 775.712 67.9328 770.789 67.9328ZM757.047 45.425H784.326V72.639H757.047V45.425ZM791.505 60.362H796.018C796.018 55.4512 800.12 51.3589 805.042 51.3589C809.965 51.3589 814.067 55.4512 814.067 60.362H818.579V33.148H814.067C814.067 38.0588 809.965 42.1511 805.042 42.1511C800.12 42.1511 796.018 38.0588 796.018 33.148H791.505V60.362ZM805.042 4.50157C800.12 4.50157 796.018 8.59391 796.018 13.5047C796.018 18.4155 800.12 22.5079 805.042 22.5079C809.965 22.5079 814.067 18.4155 814.067 13.5047C814.067 8.59391 810.17 4.50157 805.042 4.50157ZM791.505 27.2141H818.784V0H791.505V27.2141ZM688.337 147.12H692.849C692.849 152.03 696.951 156.123 701.874 156.123C706.796 156.123 710.898 152.03 710.898 147.12H715.411V174.334H710.898C710.898 169.423 706.796 165.331 701.874 165.331C696.951 165.331 692.849 169.423 692.849 174.334H688.337V147.12ZM692.849 195C692.849 194.591 692.644 194.182 692.644 193.772C692.644 188.861 696.746 184.769 701.669 184.769C706.591 184.769 710.693 188.861 710.693 193.772C710.693 194.182 710.693 194.591 710.693 195H715.411V180.063H688.132V195H692.849ZM722.589 195H727.102C727.102 190.089 731.204 185.997 736.127 185.997C741.049 185.997 745.151 190.089 745.151 195H749.664V167.991H745.151C745.151 172.901 741.049 176.994 736.127 176.994C731.204 176.994 727.102 172.901 727.102 167.991H722.589V195ZM736.332 139.344C731.409 139.344 727.307 143.437 727.307 148.347C727.307 153.258 731.409 157.35 736.332 157.35C741.254 157.35 745.356 153.258 745.356 148.347C745.356 143.437 741.254 139.344 736.332 139.344ZM722.589 162.057H749.869V134.843H722.589V162.057ZM688.337 79.596H692.849C692.849 84.5068 696.951 88.5992 701.874 88.5992C706.796 88.5992 710.898 84.5068 710.898 79.596H715.411V106.81H710.898C710.898 101.899 706.796 97.8069 701.874 97.8069C696.951 97.8069 692.849 101.899 692.849 106.81H688.337V79.596ZM701.874 135.456C696.951 135.456 692.849 131.364 692.849 126.453C692.849 121.542 696.951 117.45 701.874 117.45C706.796 117.45 710.898 121.542 710.898 126.453C710.898 131.364 706.796 135.456 701.874 135.456ZM688.337 112.744H715.616V139.958H688.337V112.744ZM722.589 127.681H727.102C727.102 122.77 731.204 118.678 736.127 118.678C741.049 118.678 745.151 122.77 745.151 127.681H749.664V100.467H745.151C745.151 105.378 741.049 109.47 736.127 109.47C731.204 109.47 727.102 105.378 727.102 100.467H722.589V127.681ZM736.332 72.0252C731.409 72.0252 727.307 76.1175 727.307 81.0283C727.307 85.9391 731.409 90.0315 736.332 90.0315C741.254 90.0315 745.356 85.9391 745.356 81.0283C745.356 76.1175 741.254 72.0252 736.332 72.0252ZM722.589 94.5331H749.869V67.319H722.589V94.5331ZM688.337 12.277H692.849C692.849 17.1878 696.951 21.2802 701.874 21.2802C706.796 21.2802 710.898 17.1878 710.898 12.277H715.411V39.4911H710.898C710.898 34.5803 706.796 30.4879 701.874 30.4879C696.951 30.4879 692.849 34.5803 692.849 39.4911H688.337V12.277ZM701.874 67.9328C696.951 67.9328 692.849 63.8405 692.849 58.9297C692.849 54.0189 696.951 49.9265 701.874 49.9265C706.796 49.9265 710.898 54.0189 710.898 58.9297C710.898 63.8405 706.796 67.9328 701.874 67.9328ZM688.337 45.425H715.616V72.639H688.337V45.425ZM722.589 60.362H727.102C727.102 55.4512 731.204 51.3589 736.127 51.3589C741.049 51.3589 745.151 55.4512 745.151 60.362H749.664V33.148H745.151C745.151 38.0588 741.049 42.1511 736.127 42.1511C731.204 42.1511 727.102 38.0588 727.102 33.148H722.589V60.362ZM736.332 4.50157C731.409 4.50157 727.307 8.59391 727.307 13.5047C727.307 18.4155 731.409 22.5079 736.332 22.5079C741.254 22.5079 745.356 18.4155 745.356 13.5047C745.356 8.59391 741.254 4.50157 736.332 4.50157ZM722.589 27.2141H749.869V0H722.589V27.2141ZM619.421 147.12H623.933C623.933 152.03 628.036 156.123 632.958 156.123C637.881 156.123 641.983 152.03 641.983 147.12H646.495V174.334H641.983C641.983 169.423 637.881 165.331 632.958 165.331C628.036 165.331 623.933 169.423 623.933 174.334H619.421V147.12ZM624.138 195C624.138 194.591 624.138 194.182 624.138 193.772C624.138 188.861 628.241 184.769 633.163 184.769C638.086 184.769 642.188 188.861 642.188 193.772C642.188 194.182 642.188 194.591 642.188 195H646.905V180.063H619.421V195H624.138ZM653.879 195H658.391C658.391 190.089 662.493 185.997 667.416 185.997C672.338 185.997 676.441 190.089 676.441 195H680.953V167.991H676.441C676.441 172.901 672.338 176.994 667.416 176.994C662.493 176.994 658.391 172.901 658.391 167.991H653.879V195ZM667.416 139.344C662.493 139.344 658.391 143.437 658.391 148.347C658.391 153.258 662.493 157.35 667.416 157.35C672.338 157.35 676.441 153.258 676.441 148.347C676.441 143.437 672.544 139.344 667.416 139.344ZM653.879 162.057H681.158V134.843H653.879V162.057ZM619.421 79.596H623.933C623.933 84.5068 628.036 88.5992 632.958 88.5992C637.881 88.5992 641.983 84.5068 641.983 79.596H646.495V106.81H641.983C641.983 101.899 637.881 97.8069 632.958 97.8069C628.036 97.8069 623.933 101.899 623.933 106.81H619.421V79.596ZM632.958 135.456C628.036 135.456 623.933 131.364 623.933 126.453C623.933 121.542 628.036 117.45 632.958 117.45C637.881 117.45 641.983 121.542 641.983 126.453C641.983 131.364 638.086 135.456 632.958 135.456ZM619.421 112.744H646.7V139.958H619.421V112.744ZM653.879 127.681H658.391C658.391 122.77 662.493 118.678 667.416 118.678C672.338 118.678 676.441 122.77 676.441 127.681H680.953V100.467H676.441C676.441 105.378 672.338 109.47 667.416 109.47C662.493 109.47 658.391 105.378 658.391 100.467H653.879V127.681ZM667.416 72.0252C662.493 72.0252 658.391 76.1175 658.391 81.0283C658.391 85.9391 662.493 90.0315 667.416 90.0315C672.338 90.0315 676.441 85.9391 676.441 81.0283C676.441 76.1175 672.544 72.0252 667.416 72.0252ZM653.879 94.5331H681.158V67.319H653.879V94.5331ZM619.421 12.277H623.933C623.933 17.1878 628.036 21.2802 632.958 21.2802C637.881 21.2802 641.983 17.1878 641.983 12.277H646.495V39.4911H641.983C641.983 34.5803 637.881 30.4879 632.958 30.4879C628.036 30.4879 623.933 34.5803 623.933 39.4911H619.421V12.277ZM632.958 67.9328C628.036 67.9328 623.933 63.8405 623.933 58.9297C623.933 54.0189 628.036 49.9265 632.958 49.9265C637.881 49.9265 641.983 54.0189 641.983 58.9297C641.983 63.8405 638.086 67.9328 632.958 67.9328ZM619.421 45.425H646.7V72.639H619.421V45.425ZM653.879 60.362H658.391C658.391 55.4512 662.493 51.3589 667.416 51.3589C672.338 51.3589 676.441 55.4512 676.441 60.362H680.953V33.148H676.441C676.441 38.0588 672.338 42.1511 667.416 42.1511C662.493 42.1511 658.391 38.0588 658.391 33.148H653.879V60.362ZM667.416 4.50157C662.493 4.50157 658.391 8.59391 658.391 13.5047C658.391 18.4155 662.493 22.5079 667.416 22.5079C672.338 22.5079 676.441 18.4155 676.441 13.5047C676.441 8.59391 672.544 4.50157 667.416 4.50157ZM653.879 27.2141H681.158V0H653.879V27.2141ZM550.505 147.12H555.018C555.018 152.03 559.12 156.123 564.042 156.123C568.965 156.123 573.067 152.03 573.067 147.12H577.579V174.334H573.067C573.067 169.423 568.965 165.331 564.042 165.331C559.12 165.331 555.018 169.423 555.018 174.334H550.505V147.12ZM555.223 195C555.223 194.591 555.018 194.182 555.018 193.772C555.018 188.861 559.12 184.769 564.042 184.769C568.965 184.769 573.067 188.861 573.067 193.772C573.067 194.182 573.067 194.591 572.862 195H577.579V180.063H550.3V195H555.223ZM584.963 195H589.476C589.476 190.089 593.578 185.997 598.5 185.997C603.423 185.997 607.525 190.089 607.525 195H612.037V167.991H607.525C607.525 172.901 603.423 176.994 598.5 176.994C593.578 176.994 589.476 172.901 589.476 167.991H584.963V195ZM598.705 139.344C593.783 139.344 589.681 143.437 589.681 148.347C589.681 153.258 593.783 157.35 598.705 157.35C603.628 157.35 607.73 153.258 607.73 148.347C607.73 143.437 603.628 139.344 598.705 139.344ZM584.963 162.057H612.242V134.843H584.963V162.057ZM550.505 79.596H555.018C555.018 84.5068 559.12 88.5992 564.042 88.5992C568.965 88.5992 573.067 84.5068 573.067 79.596H577.579V106.81H573.067C573.067 101.899 568.965 97.8069 564.042 97.8069C559.12 97.8069 555.018 101.899 555.018 106.81H550.505V79.596ZM564.247 135.456C559.325 135.456 555.223 131.364 555.223 126.453C555.223 121.542 559.325 117.45 564.247 117.45C569.17 117.45 573.272 121.542 573.272 126.453C573.272 131.364 569.17 135.456 564.247 135.456ZM550.505 112.744H577.784V139.958H550.505V112.744ZM584.963 127.681H589.476C589.476 122.77 593.578 118.678 598.5 118.678C603.423 118.678 607.525 122.77 607.525 127.681H612.037V100.467H607.525C607.525 105.378 603.423 109.47 598.5 109.47C593.578 109.47 589.476 105.378 589.476 100.467H584.963V127.681ZM598.705 72.0252C593.783 72.0252 589.681 76.1175 589.681 81.0283C589.681 85.9391 593.783 90.0315 598.705 90.0315C603.628 90.0315 607.73 85.9391 607.73 81.0283C607.73 76.1175 603.628 72.0252 598.705 72.0252ZM584.963 94.5331H612.242V67.319H584.963V94.5331ZM550.505 12.277H555.018C555.018 17.1878 559.12 21.2802 564.042 21.2802C568.965 21.2802 573.067 17.1878 573.067 12.277H577.579V39.4911H573.067C573.067 34.5803 568.965 30.4879 564.042 30.4879C559.12 30.4879 555.018 34.5803 555.018 39.4911H550.505V12.277ZM564.247 67.9328C559.325 67.9328 555.223 63.8405 555.223 58.9297C555.223 54.0189 559.325 49.9265 564.247 49.9265C569.17 49.9265 573.272 54.0189 573.272 58.9297C573.272 63.8405 569.17 67.9328 564.247 67.9328ZM550.505 45.425H577.784V72.639H550.505V45.425ZM584.963 60.362H589.476C589.476 55.4512 593.578 51.3589 598.5 51.3589C603.423 51.3589 607.525 55.4512 607.525 60.362H612.037V33.148H607.525C607.525 38.0588 603.423 42.1511 598.5 42.1511C593.578 42.1511 589.476 38.0588 589.476 33.148H584.963V60.362ZM598.705 4.50157C593.783 4.50157 589.681 8.59391 589.681 13.5047C589.681 18.4155 593.783 22.5079 598.705 22.5079C603.628 22.5079 607.73 18.4155 607.73 13.5047C607.73 8.59391 603.628 4.50157 598.705 4.50157ZM584.963 27.2141H612.242V0H584.963V27.2141ZM481.795 147.12H486.307C486.307 152.03 490.409 156.123 495.332 156.123C500.254 156.123 504.356 152.03 504.356 147.12H508.869V174.334H504.356C504.356 169.423 500.254 165.331 495.332 165.331C490.409 165.331 486.307 169.423 486.307 174.334H481.795V147.12ZM486.512 195C486.512 194.591 486.307 194.182 486.307 193.772C486.307 188.861 490.409 184.769 495.332 184.769C500.254 184.769 504.356 188.861 504.356 193.772C504.356 194.182 504.356 194.591 504.151 195H508.869V180.063H481.59V195H486.512ZM516.253 195H520.765C520.765 190.089 524.867 185.997 529.79 185.997C534.712 185.997 538.814 190.089 538.814 195H543.327V167.991H538.814C538.814 172.901 534.712 176.994 529.79 176.994C524.867 176.994 520.765 172.901 520.765 167.991H516.253V195ZM529.79 139.344C524.867 139.344 520.765 143.437 520.765 148.347C520.765 153.258 524.867 157.35 529.79 157.35C534.712 157.35 538.814 153.258 538.814 148.347C538.814 143.437 534.712 139.344 529.79 139.344ZM516.253 162.057H543.532V134.843H516.253V162.057ZM481.795 79.596H486.307C486.307 84.5068 490.409 88.5992 495.332 88.5992C500.254 88.5992 504.356 84.5068 504.356 79.596H508.869V106.81H504.356C504.356 101.899 500.254 97.8069 495.332 97.8069C490.409 97.8069 486.307 101.899 486.307 106.81H481.795V79.596ZM495.332 135.456C490.409 135.456 486.307 131.364 486.307 126.453C486.307 121.542 490.409 117.45 495.332 117.45C500.254 117.45 504.356 121.542 504.356 126.453C504.356 131.364 500.254 135.456 495.332 135.456ZM481.795 112.744H509.074V139.958H481.795V112.744ZM516.253 127.681H520.765C520.765 122.77 524.867 118.678 529.79 118.678C534.712 118.678 538.814 122.77 538.814 127.681H543.327V100.467H538.814C538.814 105.378 534.712 109.47 529.79 109.47C524.867 109.47 520.765 105.378 520.765 100.467H516.253V127.681ZM529.79 72.0252C524.867 72.0252 520.765 76.1175 520.765 81.0283C520.765 85.9391 524.867 90.0315 529.79 90.0315C534.712 90.0315 538.814 85.9391 538.814 81.0283C538.814 76.1175 534.712 72.0252 529.79 72.0252ZM516.253 94.5331H543.532V67.319H516.253V94.5331ZM481.795 12.277H486.307C486.307 17.1878 490.409 21.2802 495.332 21.2802C500.254 21.2802 504.356 17.1878 504.356 12.277H508.869V39.4911H504.356C504.356 34.5803 500.254 30.4879 495.332 30.4879C490.409 30.4879 486.307 34.5803 486.307 39.4911H481.795V12.277ZM495.332 67.9328C490.409 67.9328 486.307 63.8405 486.307 58.9297C486.307 54.0189 490.409 49.9265 495.332 49.9265C500.254 49.9265 504.356 54.0189 504.356 58.9297C504.356 63.8405 500.254 67.9328 495.332 67.9328ZM481.795 45.425H509.074V72.639H481.795V45.425ZM516.253 60.362H520.765C520.765 55.4512 524.867 51.3589 529.79 51.3589C534.712 51.3589 538.814 55.4512 538.814 60.362H543.327V33.148H538.814C538.814 38.0588 534.712 42.1511 529.79 42.1511C524.867 42.1511 520.765 38.0588 520.765 33.148H516.253V60.362ZM529.79 4.50157C524.867 4.50157 520.765 8.59391 520.765 13.5047C520.765 18.4155 524.867 22.5079 529.79 22.5079C534.712 22.5079 538.814 18.4155 538.814 13.5047C538.814 8.59391 534.712 4.50157 529.79 4.50157ZM516.253 27.2141H543.532V0H516.253V27.2141ZM412.879 147.12H417.391C417.391 152.03 421.493 156.123 426.416 156.123C431.339 156.123 435.441 152.03 435.441 147.12H439.953V174.334H435.441C435.441 169.423 431.339 165.331 426.416 165.331C421.493 165.331 417.391 169.423 417.391 174.334H412.879V147.12ZM417.596 195C417.596 194.591 417.596 194.182 417.596 193.772C417.596 188.861 421.699 184.769 426.621 184.769C431.544 184.769 435.646 188.861 435.646 193.772C435.646 194.182 435.646 194.591 435.646 195H440.363V180.063H413.084V195H417.596ZM447.337 195H451.849C451.849 190.089 455.951 185.997 460.874 185.997C465.796 185.997 469.899 190.089 469.899 195H474.411V167.991H469.899C469.899 172.901 465.796 176.994 460.874 176.994C455.951 176.994 451.849 172.901 451.849 167.991H447.337V195ZM461.079 139.344C456.156 139.344 452.054 143.437 452.054 148.347C452.054 153.258 456.156 157.35 461.079 157.35C466.002 157.35 470.104 153.258 470.104 148.347C470.104 143.437 466.002 139.344 461.079 139.344ZM447.337 162.057H474.616V134.843H447.337V162.057ZM412.879 79.596H417.391C417.391 84.5068 421.493 88.5992 426.416 88.5992C431.339 88.5992 435.441 84.5068 435.441 79.596H439.953V106.81H435.441C435.441 101.899 431.339 97.8069 426.416 97.8069C421.493 97.8069 417.391 101.899 417.391 106.81H412.879V79.596ZM426.621 135.456C421.699 135.456 417.596 131.364 417.596 126.453C417.596 121.542 421.699 117.45 426.621 117.45C431.544 117.45 435.646 121.542 435.646 126.453C435.646 131.364 431.544 135.456 426.621 135.456ZM412.879 112.744H440.158V139.958H412.879V112.744ZM447.337 127.681H451.849C451.849 122.77 455.951 118.678 460.874 118.678C465.796 118.678 469.899 122.77 469.899 127.681H474.411V100.467H469.899C469.899 105.378 465.796 109.47 460.874 109.47C455.951 109.47 451.849 105.378 451.849 100.467H447.337V127.681ZM461.079 72.0252C456.156 72.0252 452.054 76.1175 452.054 81.0283C452.054 85.9391 456.156 90.0315 461.079 90.0315C466.002 90.0315 470.104 85.9391 470.104 81.0283C470.104 76.1175 466.002 72.0252 461.079 72.0252ZM447.337 94.5331H474.616V67.319H447.337V94.5331ZM412.879 12.277H417.391C417.391 17.1878 421.493 21.2802 426.416 21.2802C431.339 21.2802 435.441 17.1878 435.441 12.277H439.953V39.4911H435.441C435.441 34.5803 431.339 30.4879 426.416 30.4879C421.493 30.4879 417.391 34.5803 417.391 39.4911H412.879V12.277ZM426.621 67.9328C421.699 67.9328 417.596 63.8405 417.596 58.9297C417.596 54.0189 421.699 49.9265 426.621 49.9265C431.544 49.9265 435.646 54.0189 435.646 58.9297C435.646 63.8405 431.544 67.9328 426.621 67.9328ZM412.879 45.425H440.158V72.639H412.879V45.425ZM447.337 60.362H451.849C451.849 55.4512 455.951 51.3589 460.874 51.3589C465.796 51.3589 469.899 55.4512 469.899 60.362H474.411V33.148H469.899C469.899 38.0588 465.796 42.1511 460.874 42.1511C455.951 42.1511 451.849 38.0588 451.849 33.148H447.337V60.362ZM461.079 4.50157C456.156 4.50157 452.054 8.59391 452.054 13.5047C452.054 18.4155 456.156 22.5079 461.079 22.5079C466.002 22.5079 470.104 18.4155 470.104 13.5047C470.104 8.59391 466.002 4.50157 461.079 4.50157ZM447.337 27.2141H474.616V0H447.337V27.2141ZM344.168 147.12H348.681C348.681 152.03 352.783 156.123 357.705 156.123C362.628 156.123 366.73 152.03 366.73 147.12H371.242V174.334H366.73C366.73 169.423 362.628 165.331 357.705 165.331C352.783 165.331 348.681 169.423 348.681 174.334H344.168V147.12ZM348.886 195C348.886 194.591 348.886 194.182 348.886 193.772C348.886 188.861 352.988 184.769 357.91 184.769C362.833 184.769 366.935 188.861 366.935 193.772C366.935 194.182 366.935 194.591 366.935 195H371.653V180.063H344.373V195H348.886ZM378.626 195H383.139C383.139 190.089 387.241 185.997 392.163 185.997C397.086 185.997 401.188 190.089 401.188 195H405.7V167.991H401.188C401.188 172.901 397.086 176.994 392.163 176.994C387.241 176.994 383.139 172.901 383.139 167.991H378.626V195ZM392.163 139.344C387.241 139.344 383.139 143.437 383.139 148.347C383.139 153.258 387.241 157.35 392.163 157.35C397.086 157.35 401.188 153.258 401.188 148.347C401.188 143.437 397.086 139.344 392.163 139.344ZM378.626 162.057H405.905V134.843H378.626V162.057ZM344.168 79.596H348.681C348.681 84.5068 352.783 88.5992 357.705 88.5992C362.628 88.5992 366.73 84.5068 366.73 79.596H371.242V106.81H366.73C366.73 101.899 362.628 97.8069 357.705 97.8069C352.783 97.8069 348.681 101.899 348.681 106.81H344.168V79.596ZM357.705 135.456C352.783 135.456 348.681 131.364 348.681 126.453C348.681 121.542 352.783 117.45 357.705 117.45C362.628 117.45 366.73 121.542 366.73 126.453C366.73 131.364 362.833 135.456 357.705 135.456ZM344.168 112.744H371.242V139.958H343.963V112.744H344.168ZM378.626 127.681H383.139C383.139 122.77 387.241 118.678 392.163 118.678C397.086 118.678 401.188 122.77 401.188 127.681H405.7V100.467H401.188C401.188 105.378 397.086 109.47 392.163 109.47C387.241 109.47 383.139 105.378 383.139 100.467H378.626V127.681ZM392.163 72.0252C387.241 72.0252 383.139 76.1175 383.139 81.0283C383.139 85.9391 387.241 90.0315 392.163 90.0315C397.086 90.0315 401.188 85.9391 401.188 81.0283C401.188 76.1175 397.086 72.0252 392.163 72.0252ZM378.626 94.5331H405.905V67.319H378.626V94.5331ZM344.168 12.277H348.681C348.681 17.1878 352.783 21.2802 357.705 21.2802C362.628 21.2802 366.73 17.1878 366.73 12.277H371.242V39.4911H366.73C366.73 34.5803 362.628 30.4879 357.705 30.4879C352.783 30.4879 348.681 34.5803 348.681 39.4911H344.168V12.277ZM357.705 67.9328C352.783 67.9328 348.681 63.8405 348.681 58.9297C348.681 54.0189 352.783 49.9265 357.705 49.9265C362.628 49.9265 366.73 54.0189 366.73 58.9297C366.73 63.8405 362.833 67.9328 357.705 67.9328ZM344.168 45.425H371.242V72.639H343.963V45.425H344.168ZM378.626 60.362H383.139C383.139 55.4512 387.241 51.3589 392.163 51.3589C397.086 51.3589 401.188 55.4512 401.188 60.362H405.7V33.148H401.188C401.188 38.0588 397.086 42.1511 392.163 42.1511C387.241 42.1511 383.139 38.0588 383.139 33.148H378.626V60.362ZM392.163 4.50157C387.241 4.50157 383.139 8.59391 383.139 13.5047C383.139 18.4155 387.241 22.5079 392.163 22.5079C397.086 22.5079 401.188 18.4155 401.188 13.5047C401.188 8.59391 397.086 4.50157 392.163 4.50157ZM378.626 27.2141H405.905V0H378.626V27.2141ZM275.253 147.12H279.765C279.765 152.03 283.867 156.123 288.79 156.123C293.712 156.123 297.814 152.03 297.814 147.12H302.327V174.334H297.814C297.814 169.423 293.712 165.331 288.79 165.331C283.867 165.331 279.765 169.423 279.765 174.334H275.253V147.12ZM279.97 195C279.97 194.591 279.765 194.182 279.765 193.772C279.765 188.861 283.867 184.769 288.79 184.769C293.712 184.769 297.814 188.861 297.814 193.772C297.814 194.182 297.814 194.591 297.609 195H302.327V180.063H275.048V195H279.97ZM309.711 195H314.223C314.223 190.089 318.325 185.997 323.248 185.997C328.17 185.997 332.272 190.089 332.272 195H336.785V167.991H332.272C332.272 172.901 328.17 176.994 323.248 176.994C318.325 176.994 314.223 172.901 314.223 167.991H309.711V195ZM323.248 139.344C318.325 139.344 314.223 143.437 314.223 148.347C314.223 153.258 318.325 157.35 323.248 157.35C328.17 157.35 332.272 153.258 332.272 148.347C332.477 143.437 328.375 139.344 323.248 139.344ZM309.711 162.057H336.99V134.843H309.711V162.057ZM275.253 79.596H279.765C279.765 84.5068 283.867 88.5992 288.79 88.5992C293.712 88.5992 297.814 84.5068 297.814 79.596H302.327V106.81H297.814C297.814 101.899 293.712 97.8069 288.79 97.8069C283.867 97.8069 279.765 101.899 279.765 106.81H275.253V79.596ZM288.995 135.456C284.072 135.456 279.97 131.364 279.97 126.453C279.97 121.542 284.072 117.45 288.995 117.45C293.917 117.45 298.019 121.542 298.019 126.453C298.019 131.364 293.917 135.456 288.995 135.456ZM275.253 112.744H302.532V139.958H275.253V112.744ZM309.711 127.681H314.223C314.223 122.77 318.325 118.678 323.248 118.678C328.17 118.678 332.272 122.77 332.272 127.681H336.785V100.467H332.272C332.272 105.378 328.17 109.47 323.248 109.47C318.325 109.47 314.223 105.378 314.223 100.467H309.711V127.681ZM323.248 72.0252C318.325 72.0252 314.223 76.1175 314.223 81.0283C314.223 85.9391 318.325 90.0315 323.248 90.0315C328.17 90.0315 332.272 85.9391 332.272 81.0283C332.477 76.1175 328.375 72.0252 323.248 72.0252ZM309.711 94.5331H336.99V67.319H309.711V94.5331ZM275.253 12.277H279.765C279.765 17.1878 283.867 21.2802 288.79 21.2802C293.712 21.2802 297.814 17.1878 297.814 12.277H302.327V39.4911H297.814C297.814 34.5803 293.712 30.4879 288.79 30.4879C283.867 30.4879 279.765 34.5803 279.765 39.4911H275.253V12.277ZM288.995 67.9328C284.072 67.9328 279.97 63.8405 279.97 58.9297C279.97 54.0189 284.072 49.9265 288.995 49.9265C293.917 49.9265 298.019 54.0189 298.019 58.9297C298.019 63.8405 293.917 67.9328 288.995 67.9328ZM275.253 45.425H302.532V72.639H275.253V45.425ZM309.711 60.362H314.223C314.223 55.4512 318.325 51.3589 323.248 51.3589C328.17 51.3589 332.272 55.4512 332.272 60.362H336.785V33.148H332.272C332.272 38.0588 328.17 42.1511 323.248 42.1511C318.325 42.1511 314.223 38.0588 314.223 33.148H309.711V60.362ZM323.248 4.50157C318.325 4.50157 314.223 8.59391 314.223 13.5047C314.223 18.4155 318.325 22.5079 323.248 22.5079C328.17 22.5079 332.272 18.4155 332.272 13.5047C332.477 8.59391 328.375 4.50157 323.248 4.50157ZM309.711 27.2141H336.99V0H309.711V27.2141ZM206.542 147.12H211.054C211.054 152.03 215.157 156.123 220.079 156.123C225.002 156.123 229.104 152.03 229.104 147.12H233.616V174.334H229.104C229.104 169.423 225.002 165.331 220.079 165.331C215.157 165.331 211.054 169.423 211.054 174.334H206.542V147.12ZM211.259 195C211.259 194.591 211.054 194.182 211.054 193.772C211.054 188.861 215.157 184.769 220.079 184.769C225.002 184.769 229.104 188.861 229.104 193.772C229.104 194.182 229.104 194.591 228.899 195H233.616V180.063H206.337V195H211.259ZM240.795 195H245.307C245.307 190.089 249.409 185.997 254.332 185.997C259.254 185.997 263.356 190.089 263.356 195H267.869V167.991H263.356C263.356 172.901 259.254 176.994 254.332 176.994C249.409 176.994 245.307 172.901 245.307 167.991H240.795V195ZM254.537 139.344C249.614 139.344 245.512 143.437 245.512 148.347C245.512 153.258 249.614 157.35 254.537 157.35C259.459 157.35 263.562 153.258 263.562 148.347C263.562 143.437 259.459 139.344 254.537 139.344ZM240.795 162.057H268.074V134.843H240.795V162.057ZM206.542 79.596H211.054C211.054 84.5068 215.157 88.5992 220.079 88.5992C225.002 88.5992 229.104 84.5068 229.104 79.596H233.616V106.81H229.104C229.104 101.899 225.002 97.8069 220.079 97.8069C215.157 97.8069 211.054 101.899 211.054 106.81H206.542V79.596ZM220.079 135.456C215.157 135.456 211.054 131.364 211.054 126.453C211.054 121.542 215.157 117.45 220.079 117.45C225.002 117.45 229.104 121.542 229.104 126.453C229.104 131.364 225.002 135.456 220.079 135.456ZM206.542 112.744H233.821V139.958H206.542V112.744ZM240.795 127.681H245.307C245.307 122.77 249.409 118.678 254.332 118.678C259.254 118.678 263.356 122.77 263.356 127.681H267.869V100.467H263.356C263.356 105.378 259.254 109.47 254.332 109.47C249.409 109.47 245.307 105.378 245.307 100.467H240.795V127.681ZM254.537 72.0252C249.614 72.0252 245.512 76.1175 245.512 81.0283C245.512 85.9391 249.614 90.0315 254.537 90.0315C259.459 90.0315 263.562 85.9391 263.562 81.0283C263.562 76.1175 259.459 72.0252 254.537 72.0252ZM240.795 94.5331H268.074V67.319H240.795V94.5331ZM206.542 12.277H211.054C211.054 17.1878 215.157 21.2802 220.079 21.2802C225.002 21.2802 229.104 17.1878 229.104 12.277H233.616V39.4911H229.104C229.104 34.5803 225.002 30.4879 220.079 30.4879C215.157 30.4879 211.054 34.5803 211.054 39.4911H206.542V12.277ZM220.079 67.9328C215.157 67.9328 211.054 63.8405 211.054 58.9297C211.054 54.0189 215.157 49.9265 220.079 49.9265C225.002 49.9265 229.104 54.0189 229.104 58.9297C229.104 63.8405 225.002 67.9328 220.079 67.9328ZM206.542 45.425H233.821V72.639H206.542V45.425ZM240.795 60.362H245.307C245.307 55.4512 249.409 51.3589 254.332 51.3589C259.254 51.3589 263.356 55.4512 263.356 60.362H267.869V33.148H263.356C263.356 38.0588 259.254 42.1511 254.332 42.1511C249.409 42.1511 245.307 38.0588 245.307 33.148H240.795V60.362ZM254.537 4.50157C249.614 4.50157 245.512 8.59391 245.512 13.5047C245.512 18.4155 249.614 22.5079 254.537 22.5079C259.459 22.5079 263.562 18.4155 263.562 13.5047C263.562 8.59391 259.459 4.50157 254.537 4.50157ZM240.795 27.2141H268.074V0H240.795V27.2141ZM137.626 147.12H142.139C142.139 152.03 146.241 156.123 151.163 156.123C156.086 156.123 160.188 152.03 160.188 147.12H164.7V174.334H160.188C160.188 169.423 156.086 165.331 151.163 165.331C146.241 165.331 142.139 169.423 142.139 174.334H137.626V147.12ZM142.344 195C142.344 194.591 142.344 194.182 142.344 193.772C142.344 188.861 146.446 184.769 151.368 184.769C156.291 184.769 160.393 188.861 160.393 193.772C160.393 194.182 160.393 194.591 160.393 195H165.111V180.063H137.626V195H142.344ZM172.084 195H176.597C176.597 190.089 180.699 185.997 185.621 185.997C190.544 185.997 194.646 190.089 194.646 195H199.158V167.991H194.646C194.646 172.901 190.544 176.994 185.621 176.994C180.699 176.994 176.597 172.901 176.597 167.991H172.084V195ZM185.621 139.344C180.699 139.344 176.597 143.437 176.597 148.347C176.597 153.258 180.699 157.35 185.621 157.35C190.544 157.35 194.646 153.258 194.646 148.347C194.646 143.437 190.749 139.344 185.621 139.344ZM172.084 162.057H199.363V134.843H172.084V162.057ZM137.626 79.596H142.139C142.139 84.5068 146.241 88.5992 151.163 88.5992C156.086 88.5992 160.188 84.5068 160.188 79.596H164.7V106.81H160.188C160.188 101.899 156.086 97.8069 151.163 97.8069C146.241 97.8069 142.139 101.899 142.139 106.81H137.626V79.596ZM151.368 135.456C146.446 135.456 142.344 131.364 142.344 126.453C142.344 121.542 146.446 117.45 151.368 117.45C156.291 117.45 160.393 121.542 160.393 126.453C160.393 131.364 156.291 135.456 151.368 135.456ZM137.626 112.744H164.905V139.958H137.626V112.744ZM172.084 127.681H176.597C176.597 122.77 180.699 118.678 185.621 118.678C190.544 118.678 194.646 122.77 194.646 127.681H199.158V100.467H194.646C194.646 105.378 190.544 109.47 185.621 109.47C180.699 109.47 176.597 105.378 176.597 100.467H172.084V127.681ZM185.621 72.0252C180.699 72.0252 176.597 76.1175 176.597 81.0283C176.597 85.9391 180.699 90.0315 185.621 90.0315C190.544 90.0315 194.646 85.9391 194.646 81.0283C194.646 76.1175 190.749 72.0252 185.621 72.0252ZM172.084 94.5331H199.363V67.319H172.084V94.5331ZM137.626 12.277H142.139C142.139 17.1878 146.241 21.2802 151.163 21.2802C156.086 21.2802 160.188 17.1878 160.188 12.277H164.7V39.4911H160.188C160.188 34.5803 156.086 30.4879 151.163 30.4879C146.241 30.4879 142.139 34.5803 142.139 39.4911H137.626V12.277ZM151.368 67.9328C146.446 67.9328 142.344 63.8405 142.344 58.9297C142.344 54.0189 146.446 49.9265 151.368 49.9265C156.291 49.9265 160.393 54.0189 160.393 58.9297C160.393 63.8405 156.291 67.9328 151.368 67.9328ZM137.626 45.425H164.905V72.639H137.626V45.425ZM172.084 60.362H176.597C176.597 55.4512 180.699 51.3589 185.621 51.3589C190.544 51.3589 194.646 55.4512 194.646 60.362H199.158V33.148H194.646C194.646 38.0588 190.544 42.1511 185.621 42.1511C180.699 42.1511 176.597 38.0588 176.597 33.148H172.084V60.362ZM185.621 4.50157C180.699 4.50157 176.597 8.59391 176.597 13.5047C176.597 18.4155 180.699 22.5079 185.621 22.5079C190.544 22.5079 194.646 18.4155 194.646 13.5047C194.646 8.59391 190.749 4.50157 185.621 4.50157ZM172.084 27.2141H199.363V0H172.084V27.2141ZM68.9157 147.12H73.4281C73.4281 152.03 77.5302 156.123 82.4527 156.123C87.3753 156.123 91.4774 152.03 91.4774 147.12H95.9897V174.334H91.4774C91.4774 169.423 87.3753 165.331 82.4527 165.331C77.5302 165.331 73.4281 169.423 73.4281 174.334H68.9157V147.12ZM73.4281 195C73.4281 194.591 73.4281 194.182 73.4281 193.772C73.4281 188.861 77.5302 184.769 82.4527 184.769C87.3753 184.769 91.4774 188.861 91.4774 193.772C91.4774 194.182 91.4774 194.591 91.4774 195H96.1949V180.063H68.9157V195H73.4281ZM103.168 195H107.681C107.681 190.089 111.783 185.997 116.705 185.997C121.628 185.997 125.73 190.089 125.73 195H130.243V167.991H125.73C125.73 172.901 121.628 176.994 116.705 176.994C111.783 176.994 107.681 172.901 107.681 167.991H103.168V195ZM116.911 139.344C111.988 139.344 107.886 143.437 107.886 148.347C107.886 153.258 111.988 157.35 116.911 157.35C121.833 157.35 125.935 153.258 125.935 148.347C125.935 143.437 121.833 139.344 116.911 139.344ZM103.168 162.057H130.448V134.843H103.168V162.057ZM68.9157 79.596H73.4281C73.4281 84.5068 77.5302 88.5992 82.4527 88.5992C87.3753 88.5992 91.4774 84.5068 91.4774 79.596H95.9897V106.81H91.4774C91.4774 101.899 87.3753 97.8069 82.4527 97.8069C77.5302 97.8069 73.4281 101.899 73.4281 106.81H68.9157V79.596ZM82.4527 135.456C77.5302 135.456 73.4281 131.364 73.4281 126.453C73.4281 121.542 77.5302 117.45 82.4527 117.45C87.3753 117.45 91.4774 121.542 91.4774 126.453C91.4774 131.364 87.3753 135.456 82.4527 135.456ZM68.9157 112.744H96.1949V139.958H68.9157V112.744ZM103.168 127.681H107.681C107.681 122.77 111.783 118.678 116.705 118.678C121.628 118.678 125.73 122.77 125.73 127.681H130.243V100.467H125.73C125.73 105.378 121.628 109.47 116.705 109.47C111.783 109.47 107.681 105.378 107.681 100.467H103.168V127.681ZM116.911 72.0252C111.988 72.0252 107.886 76.1175 107.886 81.0283C107.886 85.9391 111.988 90.0315 116.911 90.0315C121.833 90.0315 125.935 85.9391 125.935 81.0283C125.935 76.1175 121.833 72.0252 116.911 72.0252ZM103.168 94.5331H130.448V67.319H103.168V94.5331ZM68.9157 12.277H73.4281C73.4281 17.1878 77.5302 21.2802 82.4527 21.2802C87.3753 21.2802 91.4774 17.1878 91.4774 12.277H95.9897V39.4911H91.4774C91.4774 34.5803 87.3753 30.4879 82.4527 30.4879C77.5302 30.4879 73.4281 34.5803 73.4281 39.4911H68.9157V12.277ZM82.4527 67.9328C77.5302 67.9328 73.4281 63.8405 73.4281 58.9297C73.4281 54.0189 77.5302 49.9265 82.4527 49.9265C87.3753 49.9265 91.4774 54.0189 91.4774 58.9297C91.4774 63.8405 87.3753 67.9328 82.4527 67.9328ZM68.9157 45.425H96.1949V72.639H68.9157V45.425ZM103.168 60.362H107.681C107.681 55.4512 111.783 51.3589 116.705 51.3589C121.628 51.3589 125.73 55.4512 125.73 60.362H130.243V33.148H125.73C125.73 38.0588 121.628 42.1511 116.705 42.1511C111.783 42.1511 107.681 38.0588 107.681 33.148H103.168V60.362ZM116.911 4.50157C111.988 4.50157 107.886 8.59391 107.886 13.5047C107.886 18.4155 111.988 22.5079 116.911 22.5079C121.833 22.5079 125.935 18.4155 125.935 13.5047C125.935 8.59391 121.833 4.50157 116.911 4.50157ZM103.168 27.2141H130.448V0H103.168V27.2141ZM0 147.12H4.51234C4.51234 152.03 8.61446 156.123 13.537 156.123C18.4596 156.123 22.5617 152.03 22.5617 147.12H27.074V174.334H22.5617C22.5617 169.423 18.4596 165.331 13.537 165.331C8.61446 165.331 4.51234 169.423 4.51234 174.334H0V147.12ZM4.71744 195C4.71744 194.591 4.51234 194.182 4.51234 193.772C4.51234 188.861 8.61446 184.769 13.537 184.769C18.4596 184.769 22.5617 188.861 22.5617 193.772C22.5617 194.182 22.5617 194.591 22.3566 195H27.074V180.063H0V195H4.71744ZM34.4579 195H38.9702C38.9702 190.089 43.0723 185.997 47.9949 185.997C52.9174 185.997 57.0196 190.089 57.0196 195H61.5319V167.991H57.0196C57.0196 172.901 52.9174 176.994 47.9949 176.994C43.0723 176.994 38.9702 172.901 38.9702 167.991H34.4579V195ZM47.9949 139.344C43.0723 139.344 38.9702 143.437 38.9702 148.347C38.9702 153.258 43.0723 157.35 47.9949 157.35C52.9174 157.35 57.0196 153.258 57.0196 148.347C57.0196 143.437 53.1225 139.344 47.9949 139.344ZM34.4579 162.057H61.737V134.843H34.4579V162.057ZM0 79.596H4.51234C4.51234 84.5068 8.61446 88.5992 13.537 88.5992C18.4596 88.5992 22.5617 84.5068 22.5617 79.596H27.074V106.81H22.5617C22.5617 101.899 18.4596 97.8069 13.537 97.8069C8.61446 97.8069 4.51234 101.899 4.51234 106.81H0V79.596ZM13.537 135.456C8.61446 135.456 4.51234 131.364 4.51234 126.453C4.51234 121.542 8.61446 117.45 13.537 117.45C18.4596 117.45 22.5617 121.542 22.5617 126.453C22.5617 131.364 18.6647 135.456 13.537 135.456ZM0 112.744H27.2791V139.958H0V112.744ZM34.4579 127.681H38.9702C38.9702 122.77 43.0723 118.678 47.9949 118.678C52.9174 118.678 57.0196 122.77 57.0196 127.681H61.5319V100.467H57.0196C57.0196 105.378 52.9174 109.47 47.9949 109.47C43.0723 109.47 38.9702 105.378 38.9702 100.467H34.4579V127.681ZM47.9949 72.0252C43.0723 72.0252 38.9702 76.1175 38.9702 81.0283C38.9702 85.9391 43.0723 90.0315 47.9949 90.0315C52.9174 90.0315 57.0196 85.9391 57.0196 81.0283C57.0196 76.1175 53.1225 72.0252 47.9949 72.0252ZM34.4579 94.5331H61.737V67.319H34.4579V94.5331ZM0 12.277H4.51234C4.51234 17.1878 8.61446 21.2802 13.537 21.2802C18.4596 21.2802 22.5617 17.1878 22.5617 12.277H27.074V39.4911H22.5617C22.5617 34.5803 18.4596 30.4879 13.537 30.4879C8.61446 30.4879 4.51234 34.5803 4.51234 39.4911H0V12.277ZM13.537 67.9328C8.61446 67.9328 4.51234 63.8405 4.51234 58.9297C4.51234 54.0189 8.61446 49.9265 13.537 49.9265C18.4596 49.9265 22.5617 54.0189 22.5617 58.9297C22.5617 63.8405 18.6647 67.9328 13.537 67.9328ZM0 45.425H27.2791V72.639H0V45.425ZM34.4579 60.362H38.9702C38.9702 55.4512 43.0723 51.3589 47.9949 51.3589C52.9174 51.3589 57.0196 55.4512 57.0196 60.362H61.5319V33.148H57.0196C57.0196 38.0588 52.9174 42.1511 47.9949 42.1511C43.0723 42.1511 38.9702 38.0588 38.9702 33.148H34.4579V60.362ZM47.9949 4.50157C43.0723 4.50157 38.9702 8.59391 38.9702 13.5047C38.9702 18.4155 43.0723 22.5079 47.9949 22.5079C52.9174 22.5079 57.0196 18.4155 57.0196 13.5047C57.0196 8.59391 53.1225 4.50157 47.9949 4.50157ZM34.4579 27.2141H61.737V0H34.4579V27.2141Z" fill="url(#paint0_linear)"/>
<defs>
<linearGradient id="paint0_linear" x1="960" y1="0" x2="960" y2="195" gradientUnits="userSpaceOnUse">
<stop stop-color="#854C84"/>
<stop offset="1" stop-color="#7E467D"/>
</linearGradient>
</defs>
</svg>
